<svg id="svg" version="1.1" xmlns="http://www.w3.org/2000/svg" xmlns:xlink="http://www.w3.org/1999/xlink" width="400" height="400" viewBox="0, 0, 400,400"><g id="svgg"><path id="path0" d="M270.484 306.611 C 270.037 307.121,265.304 307.200,234.986 307.200 L 200.004 307.200 199.902 341.900 L 199.800 376.600 139.800 376.557 C 106.800 376.534,77.948 376.377,75.684 376.210 C 72.039 375.941,71.477 375.987,70.784 376.615 C 70.353 377.005,70.000 377.170,70.000 376.982 C 70.000 376.794,69.784 376.856,69.520 377.120 C 69.256 377.384,68.820 377.600,68.552 377.600 C 67.884 377.600,64.400 381.131,64.400 381.808 C 64.400 382.108,64.220 382.464,64.000 382.600 C 63.780 382.736,63.600 383.287,63.600 383.824 C 63.600 384.361,63.420 384.800,63.200 384.800 C 62.965 384.800,62.800 386.200,62.800 388.200 C 62.800 390.200,62.965 391.600,63.200 391.600 C 63.420 391.600,63.600 392.140,63.600 392.800 C 63.600 393.460,63.780 394.000,64.000 394.000 C 64.220 394.000,64.400 394.275,64.400 394.611 C 64.400 395.386,67.787 398.800,68.556 398.800 C 68.874 398.800,69.208 399.025,69.300 399.300 C 69.433 399.699,95.929 399.800,200.000 399.800 C 304.071 399.800,330.567 399.699,330.700 399.300 C 330.792 399.025,331.126 398.800,331.444 398.800 C 332.213 398.800,335.600 395.386,335.600 394.611 C 335.600 394.275,335.780 394.000,336.000 394.000 C 336.220 394.000,336.400 393.460,336.400 392.800 C 336.400 392.140,336.580 391.600,336.800 391.600 C 337.035 391.600,337.200 390.200,337.200 388.200 C 337.200 386.200,337.035 384.800,336.800 384.800 C 336.580 384.800,336.400 384.260,336.400 383.600 C 336.400 382.940,336.220 382.400,336.000 382.400 C 335.780 382.400,335.600 382.144,335.600 381.832 C 335.600 381.092,332.108 377.600,331.368 377.600 C 331.056 377.600,330.800 377.420,330.800 377.200 C 330.800 376.980,330.440 376.800,330.000 376.800 C 329.560 376.800,329.200 376.620,329.200 376.400 C 329.200 376.180,329.065 376.021,328.900 376.047 C 328.735 376.073,327.025 376.073,325.100 376.047 L 321.600 376.000 321.600 345.424 C 321.600 325.471,321.461 314.761,321.200 314.600 C 320.980 314.464,320.800 314.003,320.800 313.576 C 320.800 313.149,320.620 312.800,320.400 312.800 C 320.180 312.800,320.000 312.555,320.000 312.256 C 320.000 311.269,316.056 307.600,314.995 307.600 C 314.668 307.600,314.400 307.459,314.400 307.287 C 314.400 307.115,313.923 306.935,313.340 306.887 C 312.758 306.839,312.072 306.626,311.817 306.414 C 310.974 305.715,271.102 305.904,270.484 306.611 M78.400 315.800 C 78.400 316.350,78.469 316.800,78.553 316.800 C 78.638 316.800,78.793 316.350,78.898 315.800 C 79.003 315.250,78.934 314.800,78.745 314.800 C 78.555 314.800,78.400 315.250,78.400 315.800 " stroke="none" fill="#944c24" fill-rule="evenodd"></path><path id="path1" d="M116.900 0.282 C 116.405 0.378,116.000 0.623,116.000 0.828 C 116.000 1.033,115.730 1.200,115.399 1.200 C 115.069 1.200,114.119 1.921,113.289 2.803 C 111.906 4.271,111.478 4.956,110.020 8.041 C 109.656 8.811,109.598 10.791,109.799 15.641 C 110.101 22.925,110.101 33.200,109.795 93.750 C 109.667 119.166,109.730 135.475,109.958 135.750 C 110.163 135.998,110.378 137.190,110.435 138.400 C 110.500 139.768,110.811 140.956,111.259 141.541 C 111.655 142.058,112.095 143.138,112.237 143.941 C 112.379 144.743,112.759 146.390,113.082 147.600 C 113.405 148.810,113.812 150.340,113.986 151.000 C 117.482 164.226,126.570 179.155,137.849 190.200 C 139.422 191.740,140.831 193.405,140.981 193.900 C 141.131 194.395,141.377 194.800,141.527 194.801 C 141.677 194.801,142.430 195.341,143.200 196.000 C 143.970 196.659,144.746 197.199,144.924 197.199 C 145.102 197.200,145.136 197.380,145.000 197.600 C 144.864 197.820,145.033 198.000,145.376 198.000 C 145.719 198.000,146.000 198.180,146.000 198.400 C 146.000 198.620,146.270 198.800,146.600 198.800 C 146.930 198.800,147.200 198.980,147.200 199.200 C 147.200 199.420,147.470 199.600,147.800 199.600 C 148.130 199.600,148.400 199.780,148.400 200.000 C 148.400 200.220,148.670 200.400,149.000 200.400 C 149.330 200.400,149.600 200.580,149.600 200.800 C 149.600 201.020,149.836 201.200,150.125 201.200 C 150.413 201.200,151.006 201.515,151.442 201.900 C 152.448 202.789,154.184 203.835,156.100 204.706 C 156.925 205.082,157.600 205.526,157.600 205.694 C 157.600 205.862,157.915 206.004,158.300 206.009 C 158.685 206.014,159.450 206.370,160.000 206.800 C 160.550 207.230,161.315 207.586,161.700 207.591 C 162.085 207.596,162.400 207.767,162.400 207.972 C 162.400 208.177,162.805 208.402,163.300 208.472 C 164.175 208.596,164.206 208.761,164.400 214.341 L 164.600 220.083 181.969 220.022 C 191.523 219.989,199.488 219.870,199.669 219.757 C 199.851 219.645,200.000 204.916,200.000 187.026 L 200.000 154.500 198.750 154.250 C 198.063 154.113,196.826 154.000,196.003 154.000 C 183.519 154.000,169.600 138.566,169.600 124.723 C 169.600 108.752,190.232 107.854,193.018 123.704 C 193.653 127.314,194.741 129.101,196.938 130.144 C 200.056 131.623,200.033 131.672,199.909 123.912 L 199.800 117.025 198.000 116.688 C 185.059 114.268,185.967 93.600,199.015 93.600 L 200.000 93.600 200.000 86.600 C 200.000 78.607,199.991 78.591,196.592 80.584 C 194.608 81.747,193.881 82.757,193.073 85.480 C 188.424 101.133,166.660 94.856,170.607 79.000 C 173.602 66.966,184.567 57.532,196.800 56.462 L 199.800 56.200 199.903 28.100 L 200.005 -0.000 158.903 0.054 C 136.296 0.084,117.395 0.187,116.900 0.282 M235.759 214.400 C 235.759 217.590,235.821 218.895,235.897 217.300 C 235.973 215.705,235.973 213.095,235.897 211.500 C 235.821 209.905,235.759 211.210,235.759 214.400 M164.566 243.167 C 164.475 243.258,164.400 246.363,164.400 250.067 C 164.400 254.200,164.249 256.800,164.008 256.800 C 163.792 256.800,162.631 257.430,161.427 258.200 C 160.223 258.970,159.124 259.600,158.983 259.600 C 158.843 259.600,158.429 259.952,158.064 260.383 C 157.699 260.814,157.162 261.219,156.871 261.283 C 156.580 261.347,155.433 262.255,154.322 263.300 C 153.212 264.345,152.055 265.200,151.752 265.200 C 151.448 265.200,151.236 265.335,151.280 265.500 C 151.393 265.922,147.252 270.000,146.711 270.000 C 146.467 270.000,146.365 270.099,146.486 270.219 C 146.700 270.433,146.142 271.177,143.900 273.664 C 143.295 274.335,142.800 275.001,142.799 275.142 C 142.799 275.284,142.259 276.030,141.600 276.800 C 140.941 277.570,140.401 278.425,140.401 278.700 C 140.400 278.975,140.220 279.200,140.000 279.200 C 139.780 279.200,139.600 279.571,139.600 280.024 C 139.600 280.477,139.450 280.755,139.268 280.642 C 139.085 280.529,138.691 281.058,138.393 281.818 C 138.095 282.578,137.704 283.200,137.525 283.200 C 137.346 283.200,137.200 283.478,137.200 283.817 C 137.200 284.156,136.840 284.820,136.400 285.292 C 135.960 285.764,135.600 286.567,135.600 287.075 C 135.600 287.584,135.420 288.000,135.200 288.000 C 134.980 288.000,134.800 288.253,134.800 288.562 C 134.800 289.047,134.248 290.320,132.750 293.295 C 132.557 293.677,132.400 294.341,132.400 294.771 C 132.400 295.201,132.220 295.664,132.000 295.800 C 131.780 295.936,131.600 296.487,131.600 297.024 C 131.600 297.561,131.420 298.000,131.200 298.000 C 130.980 298.000,130.800 298.709,130.800 299.576 C 130.800 300.443,130.620 301.264,130.400 301.400 C 130.180 301.536,130.000 302.237,130.000 302.957 C 130.000 303.677,129.875 304.392,129.722 304.545 C 127.494 306.773,128.323 306.823,165.400 306.707 L 199.800 306.600 199.902 275.088 C 199.984 250.086,199.901 243.540,199.502 243.397 C 198.862 243.168,164.789 242.943,164.566 243.167 M235.765 250.000 C 235.765 253.850,235.825 255.425,235.898 253.500 C 235.971 251.575,235.971 248.425,235.898 246.500 C 235.825 244.575,235.765 246.150,235.765 250.000 " stroke="none" fill="#fb9373" fill-rule="evenodd"></path><path id="path2" d="M63.000 0.274 C 62.120 0.373,61.229 0.621,61.020 0.827 C 60.811 1.032,60.136 1.200,59.520 1.200 C 58.904 1.200,58.400 1.380,58.400 1.600 C 58.400 1.820,58.121 2.000,57.781 2.000 C 57.440 2.000,56.416 2.360,55.506 2.800 C 54.595 3.240,53.614 3.600,53.325 3.600 C 53.036 3.600,52.800 3.759,52.800 3.953 C 52.800 4.148,52.485 4.407,52.100 4.529 C 51.164 4.825,49.034 6.124,48.867 6.500 C 48.793 6.665,48.523 6.801,48.267 6.802 C 48.010 6.803,47.225 7.343,46.522 8.002 C 45.819 8.661,45.120 9.200,44.970 9.200 C 44.532 9.200,38.800 15.133,38.800 15.587 C 38.800 15.814,38.665 16.001,38.500 16.002 C 38.335 16.003,37.570 16.992,36.800 18.200 C 36.030 19.408,35.299 20.397,35.175 20.398 C 35.051 20.399,34.702 21.030,34.400 21.800 C 34.098 22.570,33.704 23.200,33.525 23.200 C 33.346 23.200,33.200 23.472,33.200 23.804 C 33.200 24.356,32.067 27.193,31.167 28.895 C 30.965 29.277,30.800 30.121,30.800 30.771 C 30.800 31.421,30.620 32.064,30.400 32.200 C 30.180 32.336,30.000 33.146,30.000 34.000 C 30.000 34.854,29.827 35.660,29.615 35.791 C 29.132 36.089,29.095 54.654,29.575 55.557 C 29.763 55.910,30.024 57.730,30.155 59.600 C 30.537 65.060,30.814 67.346,31.198 68.200 C 31.396 68.640,31.645 69.810,31.750 70.800 C 31.856 71.790,32.147 73.500,32.397 74.600 C 32.647 75.700,32.949 77.276,33.068 78.103 C 33.187 78.929,33.445 79.705,33.642 79.826 C 33.839 79.948,34.000 80.667,34.000 81.424 C 34.000 82.181,34.180 82.800,34.400 82.800 C 34.620 82.800,34.800 83.419,34.800 84.176 C 34.800 84.933,34.980 85.664,35.200 85.800 C 35.420 85.936,35.600 86.476,35.600 87.000 C 35.600 87.524,35.780 88.064,36.000 88.200 C 36.220 88.336,36.400 88.962,36.400 89.590 C 36.400 90.219,36.578 90.793,36.797 90.867 C 37.015 90.940,37.234 91.495,37.284 92.100 C 37.334 92.705,37.515 93.200,37.687 93.200 C 37.859 93.200,38.000 93.650,38.000 94.200 C 38.000 94.750,38.180 95.200,38.400 95.200 C 38.620 95.200,38.800 95.650,38.800 96.200 C 38.800 96.750,38.980 97.200,39.200 97.200 C 39.420 97.200,39.600 97.555,39.600 97.988 C 39.600 98.421,39.960 99.417,40.400 100.200 C 40.840 100.983,41.200 101.889,41.200 102.212 C 41.200 102.535,41.380 102.800,41.600 102.800 C 41.820 102.800,42.000 103.250,42.000 103.800 C 42.000 104.350,42.180 104.800,42.400 104.800 C 42.620 104.800,42.800 105.059,42.800 105.376 C 42.800 105.917,46.320 113.168,46.792 113.600 C 46.912 113.710,47.458 114.700,48.005 115.800 C 48.552 116.900,49.314 118.149,49.699 118.575 C 50.085 119.002,50.400 119.587,50.400 119.875 C 50.400 120.164,50.580 120.400,50.800 120.400 C 51.020 120.400,51.200 120.670,51.200 121.000 C 51.200 121.330,51.380 121.600,51.600 121.600 C 51.820 121.600,52.000 121.870,52.000 122.200 C 52.000 122.530,52.180 122.800,52.400 122.800 C 52.620 122.800,52.800 123.043,52.800 123.341 C 52.800 123.638,53.340 124.446,54.000 125.137 C 54.660 125.828,55.200 126.592,55.200 126.836 C 55.200 127.080,55.749 127.792,56.420 128.418 C 57.091 129.045,57.631 129.657,57.620 129.779 C 57.547 130.594,57.650 130.816,58.000 130.600 C 58.220 130.464,58.400 130.633,58.400 130.976 C 58.400 131.319,58.535 131.601,58.700 131.603 C 58.865 131.604,59.450 132.274,60.000 133.092 C 60.885 134.407,65.736 139.764,67.120 140.953 C 67.406 141.199,69.141 142.840,70.977 144.600 C 72.812 146.360,74.502 147.842,74.734 147.892 C 74.965 147.943,75.870 148.708,76.746 149.592 C 77.621 150.477,78.531 151.200,78.769 151.200 C 79.006 151.200,79.200 151.347,79.200 151.526 C 79.200 151.706,79.875 152.233,80.700 152.699 C 81.525 153.164,82.574 153.895,83.031 154.324 C 83.488 154.752,84.253 155.226,84.731 155.378 C 85.209 155.530,85.600 155.794,85.600 155.966 C 85.600 156.138,86.320 156.603,87.200 157.000 C 88.080 157.397,88.800 157.874,88.800 158.061 C 88.800 158.247,88.935 158.381,89.100 158.357 C 89.704 158.270,91.200 158.903,91.200 159.247 C 91.200 159.441,91.545 159.600,91.967 159.600 C 92.388 159.600,92.793 159.737,92.867 159.904 C 93.078 160.386,99.725 163.607,100.500 163.603 C 100.885 163.601,101.200 163.780,101.200 164.000 C 101.200 164.220,101.639 164.400,102.176 164.400 C 102.713 164.400,103.264 164.580,103.400 164.800 C 103.536 165.020,103.997 165.200,104.424 165.200 C 104.851 165.200,105.200 165.380,105.200 165.600 C 105.200 165.820,105.740 166.000,106.400 166.000 C 107.060 166.000,107.600 166.180,107.600 166.400 C 107.600 166.620,108.140 166.800,108.800 166.800 C 109.460 166.800,110.000 166.980,110.000 167.200 C 110.000 167.420,110.540 167.600,111.200 167.600 C 111.860 167.600,112.400 167.780,112.400 168.000 C 112.400 168.220,112.625 168.400,112.900 168.400 C 113.366 168.401,114.700 169.393,116.607 171.158 C 117.051 171.569,117.657 172.421,117.954 173.052 C 118.250 173.684,118.652 174.513,118.847 174.895 C 119.340 175.863,119.299 182.400,118.800 182.400 C 118.580 182.400,118.400 182.698,118.400 183.062 C 118.400 183.690,117.394 185.194,115.745 187.030 C 115.335 187.487,114.415 188.116,113.700 188.428 C 112.985 188.740,112.400 189.131,112.400 189.298 C 112.400 189.464,111.860 189.600,111.200 189.600 C 110.540 189.600,110.000 189.780,110.000 190.000 C 110.000 190.522,105.723 190.522,105.400 190.000 C 105.077 189.478,97.723 189.478,97.400 190.000 C 97.264 190.220,96.837 190.400,96.452 190.400 C 96.066 190.400,95.364 190.760,94.892 191.200 C 94.420 191.640,93.876 192.000,93.683 192.000 C 93.222 192.000,91.200 194.277,91.200 194.797 C 91.200 195.018,91.020 195.200,90.800 195.200 C 90.580 195.200,90.400 195.470,90.400 195.800 C 90.400 196.130,90.220 196.400,90.000 196.400 C 89.780 196.400,89.600 196.839,89.600 197.376 C 89.600 197.913,89.420 198.464,89.200 198.600 C 88.679 198.922,88.679 204.278,89.200 204.600 C 89.420 204.736,89.600 205.161,89.600 205.544 C 89.600 206.419,90.499 208.393,90.900 208.397 C 91.065 208.399,91.200 208.586,91.200 208.813 C 91.200 209.482,93.724 211.811,95.116 212.427 C 95.822 212.740,96.400 213.131,96.400 213.298 C 96.400 213.464,97.030 213.600,97.800 213.600 C 98.570 213.600,99.200 213.763,99.200 213.963 C 99.200 214.389,102.185 214.761,107.900 215.046 C 110.660 215.184,112.000 215.112,112.000 214.826 C 112.000 214.572,112.970 214.400,114.400 214.400 C 115.733 214.400,116.800 214.222,116.800 214.000 C 116.800 213.780,117.239 213.600,117.776 213.600 C 118.313 213.600,118.864 213.420,119.000 213.200 C 119.136 212.980,119.787 212.800,120.447 212.800 C 121.145 212.800,121.544 212.633,121.400 212.400 C 121.264 212.180,121.453 212.000,121.820 212.000 C 122.630 212.000,127.096 209.683,128.175 208.704 C 128.602 208.317,129.177 208.000,129.453 208.000 C 129.729 208.000,130.235 207.600,130.577 207.111 C 130.920 206.622,131.200 206.376,131.200 206.565 C 131.200 206.754,132.550 205.527,134.200 203.839 C 135.850 202.151,137.200 200.631,137.200 200.461 C 137.200 200.290,137.523 199.802,137.918 199.375 C 138.810 198.411,140.800 194.453,140.800 193.642 C 140.800 193.311,139.493 191.772,137.895 190.220 C 125.452 178.140,116.620 162.773,112.822 146.600 C 111.720 141.906,111.612 141.665,110.330 141.025 C 109.641 140.681,108.850 140.400,108.572 140.400 C 108.294 140.400,108.007 140.264,107.933 140.098 C 107.860 139.932,106.540 139.168,105.000 138.400 C 102.213 137.009,95.501 132.758,94.479 131.736 C 94.184 131.441,93.808 131.200,93.642 131.200 C 93.477 131.200,92.378 130.300,91.200 129.200 C 90.022 128.100,88.983 127.200,88.890 127.200 C 88.797 127.200,88.217 126.660,87.600 126.000 C 86.983 125.340,86.363 124.800,86.221 124.800 C 85.870 124.800,84.612 123.489,81.999 120.401 C 80.790 118.971,79.521 117.531,79.181 117.201 C 78.841 116.870,78.127 115.970,77.594 115.200 C 77.062 114.430,76.440 113.604,76.213 113.363 C 75.162 112.252,73.810 110.241,73.904 109.926 C 73.961 109.735,73.737 109.474,73.406 109.347 C 73.075 109.220,72.904 108.955,73.026 108.758 C 73.148 108.561,73.057 108.400,72.824 108.400 C 72.591 108.400,72.400 108.122,72.400 107.783 C 72.400 107.444,72.040 106.780,71.600 106.308 C 71.160 105.836,70.800 105.213,70.800 104.925 C 70.800 104.636,70.620 104.400,70.400 104.400 C 70.180 104.400,70.000 104.040,70.000 103.600 C 70.000 103.160,69.848 102.800,69.663 102.800 C 69.477 102.800,68.895 101.945,68.368 100.900 C 67.842 99.855,67.316 98.910,67.200 98.800 C 67.084 98.690,66.567 97.700,66.051 96.600 C 65.535 95.500,64.952 94.287,64.756 93.905 C 64.560 93.523,64.400 92.938,64.400 92.605 C 64.400 92.272,64.220 92.000,64.000 92.000 C 63.780 92.000,63.600 91.651,63.600 91.224 C 63.600 90.797,63.420 90.336,63.200 90.200 C 62.980 90.064,62.800 89.513,62.800 88.976 C 62.800 88.439,62.620 88.000,62.400 88.000 C 62.180 88.000,62.000 87.651,62.000 87.224 C 62.000 86.797,61.820 86.336,61.600 86.200 C 61.380 86.064,61.200 85.513,61.200 84.976 C 61.200 84.439,61.020 84.000,60.800 84.000 C 60.580 84.000,60.400 83.460,60.400 82.800 C 60.400 82.140,60.220 81.600,60.000 81.600 C 59.780 81.600,59.600 81.060,59.600 80.400 C 59.600 79.740,59.420 79.200,59.200 79.200 C 58.980 79.200,58.800 78.693,58.800 78.073 C 58.800 77.453,58.497 75.968,58.126 74.773 C 57.756 73.578,57.426 72.330,57.394 72.000 C 57.361 71.670,57.203 70.936,57.042 70.370 C 56.880 69.803,56.705 68.773,56.652 68.081 C 56.599 67.389,56.431 66.698,56.278 66.545 C 56.125 66.392,56.000 65.588,56.000 64.759 C 56.000 63.930,55.830 62.805,55.622 62.258 C 55.414 61.712,55.209 60.125,55.166 58.732 C 55.123 57.339,54.934 56.003,54.747 55.762 C 54.250 55.125,54.218 38.307,54.711 37.371 C 54.935 36.947,55.434 35.835,55.820 34.900 C 56.206 33.965,56.685 33.200,56.884 33.200 C 57.084 33.200,57.143 33.032,57.017 32.827 C 56.711 32.332,62.185 26.800,62.981 26.800 C 63.321 26.800,63.600 26.620,63.600 26.400 C 63.600 26.180,63.960 26.000,64.400 26.000 C 64.840 26.000,65.200 25.840,65.200 25.644 C 65.200 25.225,69.902 24.327,72.200 24.307 C 75.047 24.283,80.000 25.136,80.000 25.651 C 80.000 25.843,80.320 26.000,80.712 26.000 C 81.103 26.000,81.683 26.360,82.000 26.800 C 82.317 27.240,82.795 27.600,83.062 27.600 C 83.746 27.600,88.000 31.930,88.000 32.626 C 88.000 32.942,88.180 33.200,88.400 33.200 C 88.620 33.200,88.800 33.560,88.800 34.000 C 88.800 34.440,88.980 34.800,89.200 34.800 C 89.420 34.800,89.600 35.160,89.600 35.600 C 89.600 36.040,89.780 36.400,90.000 36.400 C 90.220 36.400,90.400 37.030,90.400 37.800 C 90.400 38.570,90.580 39.200,90.800 39.200 C 91.033 39.200,91.200 40.525,91.200 42.376 C 91.200 44.123,91.380 45.664,91.600 45.800 C 91.820 45.936,92.000 46.369,92.000 46.762 C 92.000 48.743,95.254 52.657,97.838 53.786 C 98.697 54.160,99.713 54.632,100.095 54.834 C 101.667 55.663,108.800 54.900,108.800 53.903 C 108.800 53.736,109.047 53.600,109.350 53.600 C 110.979 53.600,110.888 20.878,109.255 19.600 C 109.115 19.490,108.730 18.925,108.400 18.343 C 106.665 15.289,99.080 7.600,97.802 7.600 C 97.568 7.600,97.117 7.240,96.800 6.800 C 96.483 6.360,95.986 6.000,95.695 6.000 C 95.404 6.000,94.780 5.640,94.308 5.200 C 93.836 4.760,93.213 4.400,92.925 4.400 C 92.636 4.400,92.400 4.220,92.400 4.000 C 92.400 3.780,92.051 3.600,91.624 3.600 C 91.197 3.600,90.757 3.454,90.646 3.275 C 90.536 3.097,89.130 2.538,87.523 2.034 C 85.915 1.530,84.240 0.917,83.800 0.671 C 82.995 0.221,66.304 -0.098,63.000 0.274 M199.903 28.093 L 199.800 56.200 196.800 56.462 C 184.567 57.532,173.602 66.966,170.607 79.000 C 166.660 94.856,188.424 101.133,193.073 85.480 C 193.881 82.757,194.608 81.747,196.592 80.584 C 199.991 78.591,200.000 78.607,200.000 86.600 L 200.000 93.600 199.015 93.600 C 185.967 93.600,185.059 114.268,198.000 116.688 L 199.800 117.025 199.909 123.912 C 200.033 131.672,200.056 131.623,196.938 130.144 C 194.741 129.101,193.653 127.314,193.018 123.704 C 190.232 107.854,169.600 108.752,169.600 124.723 C 169.600 138.566,183.519 154.000,196.003 154.000 C 196.826 154.000,198.062 154.113,198.750 154.250 L 200.000 154.500 200.000 187.026 C 200.000 204.916,199.850 219.645,199.667 219.759 C 199.483 219.872,191.358 219.990,181.610 220.021 C 164.706 220.074,163.822 220.114,162.468 220.874 C 160.625 221.909,158.400 224.144,158.400 224.960 C 158.400 225.312,158.220 225.600,158.000 225.600 C 157.780 225.600,157.600 225.949,157.600 226.376 C 157.600 226.803,157.420 227.264,157.200 227.400 C 156.977 227.538,156.800 229.404,156.800 231.624 C 156.800 234.008,156.960 235.600,157.200 235.600 C 157.420 235.600,157.600 236.050,157.600 236.600 C 157.600 237.150,157.780 237.600,158.000 237.600 C 158.220 237.600,158.400 237.855,158.400 238.167 C 158.400 238.478,158.542 238.793,158.714 238.867 C 158.887 238.940,159.440 239.585,159.942 240.300 C 160.444 241.015,161.202 241.600,161.627 241.600 C 162.052 241.600,162.401 241.735,162.403 241.900 C 162.414 242.952,165.023 243.124,181.895 243.179 C 191.521 243.211,199.534 243.374,199.701 243.541 C 199.868 243.708,199.959 257.965,199.902 275.222 L 199.800 306.600 165.244 306.702 C 140.045 306.777,130.540 306.682,130.144 306.353 C 129.805 306.072,129.600 306.055,129.600 306.308 C 129.600 306.532,129.885 306.824,130.233 306.957 C 131.360 307.390,199.931 307.236,200.200 306.800 C 200.362 306.538,212.523 306.400,235.381 306.400 C 266.867 306.400,270.338 306.338,270.557 305.767 C 270.932 304.792,270.789 304.095,270.400 305.000 C 270.152 305.577,270.048 305.165,270.028 303.524 C 270.013 302.272,269.820 301.136,269.600 301.000 C 269.380 300.864,269.200 300.234,269.200 299.600 C 269.200 298.966,269.020 298.336,268.800 298.200 C 268.580 298.064,268.400 297.524,268.400 297.000 C 268.400 296.476,268.220 295.936,268.000 295.800 C 267.780 295.664,267.600 295.124,267.600 294.600 C 267.600 294.076,267.420 293.536,267.200 293.400 C 266.980 293.264,266.800 292.703,266.800 292.153 C 266.800 291.588,266.626 291.260,266.400 291.400 C 266.173 291.540,266.000 291.204,266.000 290.624 C 266.000 290.061,265.820 289.600,265.600 289.600 C 265.380 289.600,265.200 289.240,265.200 288.800 C 265.200 288.360,265.020 288.000,264.800 288.000 C 264.580 288.000,264.400 287.728,264.400 287.395 C 264.400 286.728,263.681 285.337,262.896 284.483 C 262.619 284.182,262.512 283.742,262.658 283.506 C 262.815 283.251,262.736 283.193,262.462 283.362 C 262.188 283.531,262.000 283.393,262.000 283.024 C 262.000 282.681,261.820 282.400,261.600 282.400 C 261.380 282.400,261.200 282.166,261.200 281.880 C 261.200 281.144,260.259 279.207,259.900 279.203 C 259.735 279.201,259.600 279.007,259.600 278.771 C 259.600 278.536,259.375 278.092,259.100 277.785 C 257.949 276.502,257.600 276.015,257.600 275.695 C 257.600 275.509,257.015 274.708,256.300 273.915 C 254.460 271.875,253.600 270.820,253.600 270.604 C 253.600 270.247,249.110 266.000,248.732 266.000 C 248.524 266.000,248.464 265.820,248.600 265.600 C 248.822 265.240,248.297 265.027,247.500 265.153 C 247.335 265.179,247.245 265.065,247.300 264.900 C 247.355 264.735,247.304 264.600,247.187 264.600 C 247.069 264.600,246.340 263.967,245.566 263.192 C 244.792 262.418,243.178 261.162,241.979 260.400 C 240.781 259.638,239.740 258.876,239.667 258.707 C 239.593 258.538,239.278 258.400,238.967 258.400 C 238.655 258.400,238.400 258.220,238.400 258.000 C 238.400 257.780,238.130 257.600,237.800 257.600 C 237.470 257.600,237.200 257.420,237.200 257.200 C 237.200 256.980,236.840 256.800,236.400 256.800 C 235.631 256.800,235.600 256.533,235.600 249.900 L 235.600 243.000 217.900 243.000 L 200.200 243.000 200.200 231.400 L 200.200 219.800 216.200 219.800 C 225.000 219.800,232.965 219.958,233.900 220.151 L 235.600 220.502 235.600 214.723 L 235.600 208.944 238.900 207.387 C 240.715 206.531,242.260 205.689,242.333 205.515 C 242.407 205.342,242.812 205.200,243.233 205.200 C 243.655 205.200,244.000 205.020,244.000 204.800 C 244.000 204.580,244.360 204.400,244.800 204.400 C 245.240 204.400,245.600 204.220,245.600 204.000 C 245.600 203.780,245.836 203.600,246.125 203.600 C 246.413 203.600,247.036 203.240,247.508 202.800 C 247.980 202.360,248.604 202.000,248.895 202.000 C 249.186 202.000,249.683 201.640,250.000 201.200 C 250.317 200.760,250.809 200.400,251.092 200.400 C 251.375 200.400,252.172 199.860,252.863 199.200 C 253.554 198.540,254.269 198.000,254.452 198.000 C 254.851 198.000,256.869 196.256,258.342 194.638 C 258.924 193.999,260.930 191.923,262.800 190.023 C 268.858 183.870,273.010 178.550,277.647 171.000 C 278.615 169.424,282.515 161.551,283.294 159.600 C 283.514 159.050,283.852 158.287,284.047 157.905 C 284.241 157.523,284.400 156.936,284.400 156.600 C 284.400 156.264,284.580 155.632,284.800 155.195 C 285.020 154.758,285.380 154.042,285.600 153.605 C 285.820 153.168,286.000 152.369,286.000 151.829 C 286.000 151.289,286.180 150.736,286.400 150.600 C 286.620 150.464,286.800 149.834,286.800 149.200 C 286.800 148.566,286.980 147.936,287.200 147.800 C 287.420 147.664,287.600 146.854,287.600 146.000 C 287.600 145.146,287.780 144.336,288.000 144.200 C 288.220 144.064,288.400 143.445,288.400 142.825 C 288.400 142.205,288.654 141.487,288.965 141.229 C 289.277 140.971,289.662 139.643,289.821 138.280 C 290.369 133.598,290.277 8.723,289.726 7.551 C 289.454 6.974,289.345 6.389,289.483 6.251 C 289.621 6.113,289.523 6.000,289.267 6.000 C 289.010 6.000,288.800 5.725,288.800 5.389 C 288.800 4.728,285.948 1.771,284.373 0.800 C 283.527 0.279,277.939 0.186,241.703 0.093 L 200.005 -0.014 199.903 28.093 M209.160 57.581 C 228.241 64.049,236.521 86.511,225.789 102.694 C 224.168 105.137,224.143 105.315,225.200 106.800 C 238.206 125.065,225.168 152.992,203.138 154.058 L 200.200 154.200 200.200 142.615 L 200.200 131.030 201.600 130.652 C 208.617 128.757,208.467 118.668,201.400 117.214 L 200.200 116.968 200.094 105.472 L 199.988 93.977 201.894 93.161 C 208.637 90.277,208.522 81.713,201.715 79.893 L 200.000 79.434 200.000 67.984 C 200.000 61.686,200.082 56.451,200.183 56.351 C 200.603 55.930,206.793 56.779,209.160 57.581 " stroke="none" fill="#e4644c" fill-rule="evenodd"></path><path id="path3" d="M88.600 306.400 C 88.464 306.620,87.823 306.800,87.176 306.800 C 86.529 306.800,86.000 306.936,86.000 307.102 C 86.000 307.269,85.423 307.660,84.718 307.972 C 83.068 308.702,81.379 310.216,80.343 311.893 C 78.440 314.971,78.410 315.524,78.405 346.875 L 78.400 376.351 80.100 376.591 C 81.035 376.723,108.350 376.779,140.800 376.716 L 199.800 376.600 199.902 341.900 L 200.004 307.200 234.769 307.200 C 267.283 307.200,270.800 307.127,270.800 306.457 C 270.800 306.019,200.676 306.364,200.236 306.804 C 199.512 307.528,130.585 307.328,129.857 306.600 C 129.128 305.871,89.047 305.676,88.600 306.400 " stroke="none" fill="#bc642c" fill-rule="evenodd"></path><path id="path4" d="M317.700 0.273 C 316.765 0.368,316.000 0.616,316.000 0.823 C 316.000 1.030,315.471 1.200,314.824 1.200 C 314.177 1.200,313.536 1.380,313.400 1.600 C 313.264 1.820,312.724 2.000,312.200 2.000 C 311.676 2.000,311.136 2.180,311.000 2.400 C 310.864 2.620,310.403 2.800,309.976 2.800 C 309.549 2.800,309.200 2.980,309.200 3.200 C 309.200 3.420,308.840 3.600,308.400 3.600 C 307.960 3.600,307.600 3.780,307.600 4.000 C 307.600 4.220,307.322 4.400,306.983 4.400 C 306.644 4.400,305.980 4.760,305.508 5.200 C 305.036 5.640,304.413 6.000,304.125 6.000 C 303.836 6.000,303.600 6.180,303.600 6.400 C 303.600 6.620,303.322 6.800,302.982 6.800 C 302.642 6.800,301.877 7.254,301.282 7.809 C 300.687 8.364,299.915 9.084,299.566 9.409 C 299.218 9.734,298.811 10.000,298.661 10.000 C 298.212 10.000,295.201 12.968,295.201 13.412 C 295.200 13.639,294.581 14.408,293.824 15.122 C 293.067 15.836,292.321 16.821,292.167 17.310 C 292.012 17.800,291.506 18.530,291.043 18.933 C 290.215 19.654,290.198 19.955,290.084 36.388 C 289.958 54.420,289.956 54.400,292.029 54.400 C 292.453 54.400,292.800 54.555,292.800 54.744 C 292.800 55.202,299.137 55.340,299.733 54.894 C 299.990 54.701,300.965 54.303,301.900 54.008 C 302.835 53.713,303.600 53.321,303.600 53.136 C 303.600 52.951,303.870 52.800,304.200 52.800 C 304.530 52.800,304.800 52.658,304.800 52.483 C 304.800 52.309,305.385 51.542,306.100 50.779 C 307.917 48.840,308.804 46.049,308.802 42.276 C 308.801 40.295,308.946 39.243,309.200 39.400 C 309.433 39.544,309.600 39.145,309.600 38.447 C 309.600 37.787,309.780 37.136,310.000 37.000 C 310.220 36.864,310.400 36.313,310.400 35.776 C 310.400 35.239,310.580 34.800,310.800 34.800 C 311.020 34.800,311.200 34.528,311.200 34.196 C 311.200 33.864,311.740 33.028,312.400 32.337 C 313.060 31.646,313.600 30.920,313.600 30.722 C 313.600 30.212,315.477 28.400,316.005 28.400 C 316.248 28.400,316.336 28.220,316.200 28.000 C 316.064 27.780,316.323 27.600,316.776 27.600 C 317.229 27.600,317.600 27.452,317.600 27.271 C 317.600 26.051,327.817 23.495,329.000 24.419 C 329.220 24.591,329.537 24.730,329.704 24.727 C 331.169 24.704,334.800 25.354,334.800 25.639 C 334.800 25.838,335.120 26.000,335.512 26.000 C 335.903 26.000,336.483 26.360,336.800 26.800 C 337.117 27.240,337.612 27.600,337.899 27.600 C 339.425 27.600,344.800 35.002,344.800 37.103 C 344.800 37.508,344.995 38.035,345.233 38.273 C 345.753 38.793,345.769 54.299,345.251 54.966 C 345.065 55.205,344.874 56.653,344.826 58.183 C 344.778 59.714,344.602 61.244,344.434 61.583 C 344.266 61.923,344.090 63.003,344.043 63.985 C 343.996 64.966,343.821 65.956,343.653 66.185 C 343.486 66.413,343.298 67.320,343.236 68.200 C 343.173 69.080,343.017 69.971,342.888 70.180 C 342.759 70.389,342.612 70.929,342.561 71.380 C 342.297 73.702,341.854 75.643,341.546 75.833 C 341.356 75.951,341.200 76.577,341.200 77.224 C 341.200 77.871,341.020 78.400,340.800 78.400 C 340.580 78.400,340.400 79.131,340.400 80.024 C 340.400 81.004,340.242 81.549,340.000 81.400 C 339.767 81.256,339.600 81.655,339.600 82.353 C 339.600 83.013,339.420 83.664,339.200 83.800 C 338.980 83.936,338.800 84.397,338.800 84.824 C 338.800 85.251,338.620 85.600,338.400 85.600 C 338.180 85.600,338.000 86.140,338.000 86.800 C 338.000 87.460,337.820 88.000,337.600 88.000 C 337.380 88.000,337.200 88.360,337.200 88.800 C 337.200 89.240,337.059 89.600,336.887 89.600 C 336.715 89.600,336.534 90.085,336.485 90.678 C 336.436 91.270,336.252 91.855,336.076 91.978 C 335.900 92.100,335.382 93.010,334.925 94.000 C 332.705 98.810,332.286 99.600,331.956 99.600 C 331.760 99.600,331.600 99.960,331.600 100.400 C 331.600 100.840,331.409 101.200,331.176 101.200 C 330.943 101.200,330.855 101.365,330.980 101.568 C 331.105 101.770,330.936 102.207,330.604 102.539 C 330.272 102.871,330.000 103.426,330.000 103.771 C 330.000 104.117,329.841 104.400,329.646 104.400 C 329.451 104.400,328.996 105.022,328.635 105.783 C 328.274 106.544,327.800 107.276,327.583 107.411 C 327.365 107.545,327.283 107.811,327.400 108.000 C 327.517 108.190,327.252 108.599,326.809 108.909 C 326.367 109.218,326.128 109.595,326.278 109.745 C 326.429 109.895,326.158 110.294,325.676 110.632 C 325.194 110.969,324.800 111.516,324.800 111.846 C 324.800 112.177,324.620 112.336,324.400 112.200 C 324.180 112.064,324.000 112.235,324.000 112.580 C 324.000 112.925,323.460 113.772,322.800 114.463 C 322.140 115.154,321.600 115.973,321.600 116.283 C 321.600 116.593,321.420 116.736,321.200 116.600 C 320.980 116.464,320.800 116.571,320.800 116.838 C 320.800 117.105,320.080 118.009,319.200 118.846 C 318.320 119.683,317.600 120.543,317.600 120.757 C 317.600 120.971,317.285 121.246,316.900 121.368 C 316.515 121.491,315.942 122.171,315.628 122.881 C 315.314 123.591,314.986 123.958,314.899 123.697 C 314.779 123.336,314.616 123.339,314.213 123.712 C 313.922 123.980,313.766 124.335,313.866 124.500 C 313.965 124.665,313.844 124.800,313.595 124.800 C 312.985 124.800,311.976 125.842,312.286 126.152 C 312.422 126.289,312.278 126.401,311.967 126.402 C 311.655 126.402,310.657 127.167,309.749 128.102 C 308.841 129.036,307.899 129.844,307.654 129.898 C 307.410 129.952,306.693 130.537,306.062 131.198 C 305.430 131.859,304.658 132.400,304.345 132.400 C 304.032 132.400,303.517 132.760,303.200 133.200 C 302.883 133.640,302.369 134.000,302.059 134.000 C 301.748 134.000,301.203 134.320,300.847 134.711 C 300.491 135.102,299.345 135.866,298.300 136.410 C 297.255 136.954,296.400 137.534,296.400 137.699 C 296.400 137.865,296.040 138.000,295.600 138.000 C 295.160 138.000,294.800 138.180,294.800 138.400 C 294.800 138.620,294.429 138.800,293.976 138.800 C 293.523 138.800,293.264 138.980,293.400 139.200 C 293.536 139.420,293.277 139.600,292.824 139.600 C 292.371 139.600,292.000 139.780,292.000 140.000 C 292.000 140.220,291.552 140.400,291.005 140.400 C 289.629 140.400,288.400 141.563,288.400 142.865 C 288.400 143.463,288.220 144.064,288.000 144.200 C 287.780 144.336,287.600 145.146,287.600 146.000 C 287.600 146.854,287.420 147.664,287.200 147.800 C 286.980 147.936,286.800 148.566,286.800 149.200 C 286.800 149.834,286.620 150.464,286.400 150.600 C 286.180 150.736,286.000 151.289,286.000 151.829 C 286.000 152.369,285.792 153.213,285.538 153.705 C 284.566 155.584,284.400 156.007,284.400 156.600 C 284.400 156.936,284.241 157.523,284.047 157.905 C 283.852 158.287,283.514 159.050,283.294 159.600 C 282.515 161.551,278.615 169.424,277.647 171.000 C 272.877 178.767,268.785 183.969,262.487 190.274 C 258.870 193.895,258.791 194.014,259.389 194.927 C 259.727 195.442,259.882 195.984,259.735 196.132 C 259.587 196.279,259.655 196.400,259.885 196.400 C 260.115 196.400,260.527 196.940,260.800 197.600 C 261.073 198.260,261.455 198.800,261.649 198.800 C 261.842 198.800,262.000 199.084,262.000 199.431 C 262.000 199.779,262.720 200.754,263.600 201.600 C 264.480 202.446,265.200 203.299,265.200 203.497 C 265.200 203.885,267.043 205.600,267.460 205.600 C 267.599 205.600,268.216 206.095,268.831 206.700 C 270.564 208.407,271.117 208.800,271.783 208.800 C 272.122 208.800,272.400 208.980,272.400 209.200 C 272.400 209.420,272.636 209.600,272.925 209.600 C 273.213 209.600,273.836 209.960,274.308 210.400 C 274.780 210.840,275.433 211.200,275.760 211.200 C 276.086 211.200,276.464 211.380,276.600 211.600 C 276.736 211.820,277.297 212.000,277.847 212.000 C 278.412 212.000,278.740 212.174,278.600 212.400 C 278.464 212.620,278.723 212.822,279.176 212.850 C 280.499 212.930,280.716 212.983,281.033 213.300 C 281.198 213.465,281.753 213.600,282.267 213.600 C 282.780 213.600,283.200 213.780,283.200 214.000 C 283.200 214.220,284.179 214.400,285.376 214.400 C 286.573 214.400,287.664 214.580,287.800 214.800 C 287.940 215.027,289.930 215.200,292.400 215.200 C 294.870 215.200,296.860 215.027,297.000 214.800 C 297.136 214.580,298.036 214.400,299.000 214.400 C 299.964 214.400,300.864 214.220,301.000 214.000 C 301.136 213.780,301.707 213.600,302.269 213.600 C 305.134 213.600,310.400 208.697,310.400 206.029 C 310.400 205.599,310.580 205.136,310.800 205.000 C 311.020 204.864,311.200 203.233,311.200 201.376 C 311.200 199.392,311.035 198.000,310.800 198.000 C 310.580 198.000,310.400 197.539,310.400 196.976 C 310.400 196.413,310.258 196.040,310.085 196.148 C 309.912 196.255,309.526 195.770,309.228 195.071 C 308.593 193.582,307.249 192.000,306.619 192.000 C 306.375 192.000,305.917 191.640,305.600 191.200 C 305.283 190.760,304.613 190.400,304.112 190.400 C 303.610 190.400,303.200 190.220,303.200 190.000 C 303.200 189.758,301.467 189.600,298.800 189.600 C 296.133 189.600,294.400 189.758,294.400 190.000 C 294.400 190.220,293.410 190.400,292.200 190.400 C 290.990 190.400,290.000 190.220,290.000 190.000 C 290.000 189.780,289.638 189.600,289.195 189.600 C 288.353 189.600,287.016 188.954,286.083 188.096 C 285.782 187.819,285.342 187.712,285.106 187.858 C 284.870 188.004,284.788 187.943,284.925 187.722 C 285.061 187.501,284.729 187.083,284.186 186.793 C 283.644 186.502,283.200 186.098,283.200 185.894 C 283.200 185.690,282.829 185.002,282.375 184.365 C 281.922 183.729,281.524 182.846,281.490 182.404 C 281.457 181.962,281.288 181.600,281.115 181.600 C 280.942 181.600,280.800 180.160,280.800 178.400 C 280.800 176.533,280.967 175.200,281.200 175.200 C 281.420 175.200,281.600 174.840,281.600 174.400 C 281.600 173.960,281.780 173.600,282.000 173.600 C 282.220 173.600,282.400 173.229,282.400 172.776 C 282.400 172.323,282.580 172.064,282.800 172.200 C 283.020 172.336,283.200 172.194,283.200 171.883 C 283.200 171.573,283.769 170.888,284.463 170.360 C 285.158 169.832,285.955 169.175,286.235 168.900 C 286.514 168.625,287.026 168.400,287.371 168.400 C 287.717 168.400,288.000 168.220,288.000 168.000 C 288.000 167.780,288.439 167.600,288.976 167.600 C 289.513 167.600,290.064 167.420,290.200 167.200 C 290.336 166.980,290.876 166.800,291.400 166.800 C 291.924 166.800,292.464 166.620,292.600 166.400 C 292.736 166.180,293.287 166.000,293.824 166.000 C 294.361 166.000,294.800 165.820,294.800 165.600 C 294.800 165.380,295.239 165.200,295.776 165.200 C 296.313 165.200,296.864 165.020,297.000 164.800 C 297.136 164.580,297.697 164.400,298.247 164.400 C 298.812 164.400,299.140 164.226,299.000 164.000 C 298.864 163.780,299.105 163.600,299.536 163.600 C 299.966 163.600,301.345 163.060,302.600 162.400 C 303.855 161.740,305.133 161.200,305.441 161.200 C 305.748 161.200,306.000 161.020,306.000 160.800 C 306.000 160.580,306.360 160.400,306.800 160.400 C 307.240 160.400,307.600 160.220,307.600 160.000 C 307.600 159.780,307.870 159.600,308.200 159.600 C 308.530 159.600,308.800 159.442,308.800 159.250 C 308.800 159.058,309.318 158.796,309.952 158.670 C 310.585 158.543,311.374 158.169,311.704 157.839 C 312.034 157.508,312.416 157.350,312.552 157.486 C 312.689 157.622,312.800 157.523,312.800 157.267 C 312.800 157.010,313.036 156.800,313.325 156.800 C 313.613 156.800,314.236 156.440,314.708 156.000 C 315.180 155.560,315.732 155.200,315.934 155.200 C 316.137 155.200,316.529 154.927,316.806 154.593 C 317.083 154.259,317.915 153.698,318.655 153.347 C 319.395 152.996,320.000 152.549,320.000 152.354 C 320.000 152.159,320.172 152.000,320.383 152.000 C 320.594 152.000,321.523 151.280,322.448 150.400 C 323.373 149.520,324.290 148.800,324.484 148.800 C 324.679 148.800,326.054 147.568,327.539 146.062 C 329.024 144.556,330.726 143.005,331.320 142.616 C 331.914 142.227,332.400 141.659,332.400 141.354 C 332.400 141.049,332.594 140.800,332.830 140.800 C 333.357 140.800,338.637 135.453,339.260 134.289 C 339.780 133.317,340.158 132.836,341.800 131.056 C 342.460 130.341,343.049 129.528,343.109 129.251 C 343.169 128.973,343.664 128.300,344.209 127.755 C 344.754 127.210,345.200 126.619,345.200 126.443 C 345.200 126.267,345.515 125.750,345.900 125.295 C 347.755 123.102,348.000 122.764,348.000 122.395 C 348.000 122.178,348.180 122.000,348.400 122.000 C 348.620 122.000,348.800 121.730,348.800 121.400 C 348.800 121.070,348.980 120.800,349.200 120.800 C 349.420 120.800,349.600 120.480,349.600 120.088 C 349.600 119.697,349.960 119.117,350.400 118.800 C 350.840 118.483,351.200 117.918,351.200 117.545 C 351.200 117.172,351.335 116.807,351.500 116.733 C 351.876 116.566,353.175 114.436,353.471 113.500 C 353.593 113.115,353.852 112.800,354.047 112.800 C 354.241 112.800,354.400 112.440,354.400 112.000 C 354.400 111.560,354.610 111.200,354.867 111.200 C 355.123 111.200,355.218 111.084,355.076 110.943 C 354.935 110.802,355.436 109.563,356.190 108.190 C 356.945 106.818,357.450 105.584,357.314 105.448 C 357.178 105.311,357.260 105.200,357.496 105.200 C 357.733 105.200,358.157 104.300,358.439 103.200 C 358.721 102.100,359.097 101.200,359.276 101.200 C 359.454 101.200,359.600 100.840,359.600 100.400 C 359.600 99.960,359.780 99.600,360.000 99.600 C 360.220 99.600,360.400 99.060,360.400 98.400 C 360.400 97.740,360.580 97.200,360.800 97.200 C 361.020 97.200,361.200 96.840,361.200 96.400 C 361.200 95.960,361.380 95.600,361.600 95.600 C 361.820 95.600,362.000 95.060,362.000 94.400 C 362.000 93.740,362.180 93.200,362.400 93.200 C 362.620 93.200,362.800 92.761,362.800 92.224 C 362.800 91.687,362.980 91.136,363.200 91.000 C 363.420 90.864,363.600 90.213,363.600 89.553 C 363.600 88.855,363.767 88.456,364.000 88.600 C 364.233 88.744,364.400 88.345,364.400 87.647 C 364.400 86.987,364.580 86.336,364.800 86.200 C 365.020 86.064,365.200 85.333,365.200 84.576 C 365.200 83.819,365.380 83.200,365.600 83.200 C 365.820 83.200,366.000 82.581,366.000 81.824 C 366.000 81.067,366.180 80.336,366.400 80.200 C 366.620 80.064,366.800 79.243,366.800 78.376 C 366.800 77.509,366.980 76.800,367.200 76.800 C 367.420 76.800,367.600 76.001,367.600 75.024 C 367.600 74.047,367.780 73.136,368.000 73.000 C 368.220 72.864,368.400 71.899,368.400 70.856 C 368.400 69.813,368.564 68.789,368.765 68.580 C 369.164 68.164,369.520 65.307,369.846 59.900 C 369.962 57.975,370.230 56.400,370.441 56.400 C 370.682 56.400,370.762 52.467,370.655 45.900 C 370.483 35.223,370.205 31.600,369.560 31.600 C 369.362 31.600,369.200 30.981,369.200 30.224 C 369.200 29.467,369.020 28.736,368.800 28.600 C 368.580 28.464,368.400 27.913,368.400 27.376 C 368.400 26.839,368.220 26.400,368.000 26.400 C 367.780 26.400,367.600 26.040,367.600 25.600 C 367.600 25.160,367.420 24.800,367.200 24.800 C 366.980 24.800,366.800 24.440,366.800 24.000 C 366.800 23.560,366.620 23.200,366.400 23.200 C 366.180 23.200,366.000 22.840,366.000 22.400 C 366.000 21.960,365.841 21.600,365.647 21.600 C 365.452 21.600,365.193 21.285,365.071 20.900 C 364.741 19.858,363.496 17.891,362.700 17.154 C 362.315 16.798,362.000 16.324,362.000 16.101 C 362.000 15.490,355.014 8.400,354.411 8.400 C 354.123 8.400,353.371 7.860,352.740 7.200 C 352.109 6.540,351.325 6.000,350.997 6.000 C 350.668 6.000,350.400 5.820,350.400 5.600 C 350.400 5.380,350.040 5.200,349.600 5.200 C 349.160 5.200,348.799 5.065,348.797 4.900 C 348.793 4.541,346.856 3.600,346.120 3.600 C 345.834 3.600,345.600 3.420,345.600 3.200 C 345.600 2.980,345.240 2.800,344.800 2.800 C 344.360 2.800,344.000 2.620,344.000 2.400 C 344.000 2.180,343.460 2.000,342.800 2.000 C 342.140 2.000,341.600 1.820,341.600 1.600 C 341.600 1.380,341.186 1.200,340.680 1.200 C 340.174 1.200,339.535 0.975,339.260 0.700 C 338.761 0.201,321.725 -0.136,317.700 0.273 M42.996 10.404 C 42.366 11.062,41.966 11.600,42.107 11.600 C 42.472 11.600,44.480 9.547,44.295 9.362 C 44.211 9.277,43.626 9.746,42.996 10.404 M102.497 11.299 C 103.213 12.013,104.160 12.967,104.600 13.418 C 105.932 14.783,104.746 13.110,103.240 11.500 C 102.469 10.675,101.693 10.000,101.515 10.000 C 101.338 10.000,101.780 10.584,102.497 11.299 M86.893 31.600 C 87.168 32.040,87.531 32.400,87.700 32.400 C 87.869 32.400,87.782 32.040,87.507 31.600 C 87.232 31.160,86.869 30.800,86.700 30.800 C 86.531 30.800,86.618 31.160,86.893 31.600 M200.183 56.351 C 200.082 56.451,200.000 61.686,200.000 67.984 L 200.000 79.434 201.715 79.893 C 208.522 81.713,208.637 90.277,201.894 93.161 L 199.988 93.977 200.094 105.472 L 200.200 116.968 201.400 117.214 C 208.467 118.668,208.617 128.757,201.600 130.652 L 200.200 131.030 200.200 142.615 L 200.200 154.200 203.138 154.058 C 225.168 152.992,238.206 125.065,225.200 106.800 C 224.143 105.315,224.168 105.137,225.789 102.694 C 235.265 88.405,229.581 67.465,214.104 59.653 C 209.689 57.424,201.138 55.395,200.183 56.351 M74.093 110.800 C 74.368 111.240,74.731 111.600,74.900 111.600 C 75.069 111.600,74.982 111.240,74.707 110.800 C 74.432 110.360,74.069 110.000,73.900 110.000 C 73.731 110.000,73.818 110.360,74.093 110.800 M78.093 116.000 C 78.368 116.440,78.731 116.800,78.900 116.800 C 79.069 116.800,78.982 116.440,78.707 116.000 C 78.432 115.560,78.069 115.200,77.900 115.200 C 77.731 115.200,77.818 115.560,78.093 116.000 M82.822 121.471 C 85.729 124.573,86.054 124.879,86.245 124.689 C 86.456 124.477,82.113 120.000,81.695 120.000 C 81.557 120.000,82.063 120.662,82.822 121.471 M92.509 130.400 C 93.069 130.840,93.657 131.200,93.817 131.200 C 93.977 131.200,93.650 130.840,93.091 130.400 C 92.531 129.960,91.943 129.600,91.783 129.600 C 91.623 129.600,91.950 129.960,92.509 130.400 M116.493 171.600 C 116.768 172.040,117.131 172.400,117.300 172.400 C 117.469 172.400,117.382 172.040,117.107 171.600 C 116.832 171.160,116.469 170.800,116.300 170.800 C 116.131 170.800,116.218 171.160,116.493 171.600 M116.261 185.840 C 115.228 187.257,115.600 187.342,116.730 185.947 C 117.242 185.316,117.512 184.806,117.330 184.813 C 117.149 184.819,116.667 185.282,116.261 185.840 M92.000 193.000 C 91.483 193.550,91.227 193.994,91.430 193.987 C 91.772 193.976,93.421 192.000,93.088 192.000 C 93.006 192.000,92.517 192.450,92.000 193.000 M133.782 204.115 C 132.789 205.268,132.759 205.720,133.735 204.830 C 134.321 204.297,134.800 203.802,134.800 203.730 C 134.800 203.428,134.169 203.667,133.782 204.115 M200.187 220.089 C 200.077 220.376,200.035 225.648,200.094 231.805 L 200.200 243.000 218.459 243.068 C 235.959 243.132,236.753 243.103,237.543 242.368 C 237.996 241.945,238.610 241.600,238.908 241.600 C 239.665 241.600,241.600 239.499,241.600 238.678 C 241.600 238.305,241.780 238.000,242.000 238.000 C 242.220 238.000,242.400 237.640,242.400 237.200 C 242.400 236.760,242.580 236.400,242.800 236.400 C 243.045 236.400,243.200 234.525,243.200 231.576 C 243.200 228.463,243.058 226.840,242.800 227.000 C 242.573 227.140,242.400 226.804,242.400 226.224 C 242.400 225.661,242.220 225.200,242.000 225.200 C 241.780 225.200,241.600 224.945,241.600 224.633 C 241.600 223.847,238.604 220.800,237.831 220.800 C 237.484 220.800,237.200 220.633,237.200 220.428 C 237.200 220.223,236.345 220.039,235.300 220.018 C 213.885 219.592,200.368 219.619,200.187 220.089 M159.045 239.812 C 159.410 240.369,159.786 240.747,159.882 240.651 C 160.119 240.414,159.084 238.800,158.695 238.800 C 158.522 238.800,158.680 239.256,159.045 239.812 " stroke="none" fill="#cc3c2c" fill-rule="evenodd"></path></g></svg>