<svg id="svg" version="1.1" xmlns="http://www.w3.org/2000/svg" xmlns:xlink="http://www.w3.org/1999/xlink" width="400" height="400" viewBox="0, 0, 400,400"><g id="svgg"><path id="path0" d="M280.300 306.300 C 285.635 306.363,294.365 306.363,299.700 306.300 C 305.035 306.237,300.670 306.185,290.000 306.185 C 279.330 306.185,274.965 306.237,280.300 306.300 M309.769 306.391 C 309.520 306.640,289.438 306.883,254.691 307.057 L 200.004 307.332 199.902 341.966 L 199.800 376.600 139.400 376.521 C 106.180 376.477,77.290 376.355,75.200 376.249 C 72.352 376.105,71.250 376.192,70.800 376.597 C 70.470 376.894,69.698 377.263,69.084 377.416 C 67.844 377.726,64.400 380.955,64.400 381.808 C 64.400 382.108,64.220 382.464,64.000 382.600 C 63.780 382.736,63.600 383.287,63.600 383.824 C 63.600 384.361,63.420 384.800,63.200 384.800 C 62.965 384.800,62.800 386.200,62.800 388.200 C 62.800 390.200,62.965 391.600,63.200 391.600 C 63.420 391.600,63.600 392.140,63.600 392.800 C 63.600 393.460,63.780 394.000,64.000 394.000 C 64.220 394.000,64.400 394.275,64.400 394.611 C 64.400 395.386,67.787 398.800,68.556 398.800 C 68.874 398.800,69.208 399.025,69.300 399.300 C 69.433 399.699,95.929 399.800,200.000 399.800 C 304.071 399.800,330.567 399.699,330.700 399.300 C 330.792 399.025,331.126 398.800,331.444 398.800 C 332.213 398.800,335.600 395.386,335.600 394.611 C 335.600 394.275,335.780 394.000,336.000 394.000 C 336.220 394.000,336.400 393.460,336.400 392.800 C 336.400 392.140,336.580 391.600,336.800 391.600 C 337.035 391.600,337.200 390.200,337.200 388.200 C 337.200 386.200,337.035 384.800,336.800 384.800 C 336.580 384.800,336.400 384.260,336.400 383.600 C 336.400 382.940,336.220 382.400,336.000 382.400 C 335.780 382.400,335.600 382.144,335.600 381.832 C 335.600 381.092,332.108 377.600,331.368 377.600 C 331.056 377.600,330.800 377.420,330.800 377.200 C 330.800 376.980,330.440 376.800,330.000 376.800 C 329.560 376.800,329.200 376.640,329.200 376.444 C 329.200 376.249,328.975 376.097,328.700 376.107 C 328.425 376.118,326.715 376.098,324.900 376.063 L 321.600 376.000 321.600 345.424 C 321.600 325.471,321.461 314.761,321.200 314.600 C 320.980 314.464,320.787 313.958,320.772 313.476 C 320.745 312.631,320.731 312.629,320.400 313.400 C 320.110 314.074,320.052 313.998,320.028 312.920 C 320.011 312.145,319.724 311.479,319.300 311.232 C 318.915 311.008,318.733 310.819,318.896 310.812 C 319.576 310.784,317.756 309.200,317.044 309.200 C 316.617 309.200,316.378 309.089,316.514 308.952 C 316.997 308.470,315.639 307.600,314.405 307.600 C 313.672 307.600,313.255 307.434,313.400 307.200 C 313.536 306.980,313.292 306.800,312.857 306.800 C 312.422 306.800,311.984 306.575,311.883 306.300 C 311.737 305.900,311.594 305.900,311.170 306.300 C 310.538 306.897,309.849 306.968,310.200 306.400 C 310.516 305.889,310.276 305.884,309.769 306.391 M78.400 315.800 C 78.400 316.350,78.469 316.800,78.553 316.800 C 78.638 316.800,78.793 316.350,78.898 315.800 C 79.003 315.250,78.934 314.800,78.745 314.800 C 78.555 314.800,78.400 315.250,78.400 315.800 " stroke="none" fill="#8b4620" fill-rule="evenodd"></path><path id="path1" d="M88.600 306.400 C 88.464 306.620,87.823 306.800,87.176 306.800 C 86.529 306.800,86.000 306.980,86.000 307.200 C 86.000 307.420,85.685 307.600,85.300 307.600 C 84.915 307.601,84.122 308.006,83.537 308.500 C 82.953 308.995,82.098 309.665,81.637 309.988 C 81.177 310.312,80.800 310.817,80.800 311.112 C 80.800 311.427,80.594 311.529,80.300 311.359 C 80.025 311.201,79.928 311.213,80.084 311.387 C 80.240 311.560,80.092 312.236,79.754 312.890 C 79.416 313.543,79.022 314.466,78.880 314.939 C 78.737 315.413,78.566 329.430,78.500 346.090 L 78.381 376.380 79.290 376.599 C 79.791 376.720,107.110 376.770,140.000 376.710 L 199.800 376.600 199.902 341.966 L 200.004 307.332 254.702 307.023 C 284.786 306.853,309.711 306.722,310.092 306.732 C 310.473 306.741,310.861 306.626,310.954 306.475 C 311.048 306.324,301.916 306.274,290.662 306.365 C 174.694 307.300,129.979 307.338,129.700 306.500 C 129.486 305.859,88.995 305.761,88.600 306.400 " stroke="none" fill="#bc642c" fill-rule="evenodd"></path><path id="path2" d="M62.500 0.285 C 61.785 0.376,61.200 0.580,61.200 0.738 C 61.200 0.896,60.713 1.066,60.118 1.115 C 59.522 1.164,58.856 1.384,58.638 1.602 C 58.419 1.821,57.837 2.000,57.344 2.000 C 56.851 2.000,56.336 2.180,56.200 2.400 C 56.064 2.620,55.603 2.800,55.176 2.800 C 54.749 2.800,54.400 2.980,54.400 3.200 C 54.400 3.420,54.040 3.600,53.600 3.600 C 53.160 3.600,52.800 3.780,52.800 4.000 C 52.800 4.220,52.517 4.400,52.171 4.400 C 51.826 4.400,51.271 4.672,50.939 5.004 C 50.607 5.336,50.142 5.488,49.906 5.342 C 49.651 5.185,49.593 5.264,49.762 5.538 C 49.931 5.812,49.793 6.000,49.424 6.000 C 49.081 6.000,48.800 6.180,48.800 6.400 C 48.800 6.620,48.643 6.755,48.450 6.700 C 48.258 6.645,47.484 7.140,46.731 7.800 C 45.978 8.460,45.101 9.060,44.782 9.133 C 43.914 9.332,43.180 10.044,43.428 10.445 C 43.549 10.640,43.337 10.800,42.957 10.800 C 42.577 10.800,42.360 10.893,42.474 11.007 C 42.588 11.121,41.943 11.990,41.040 12.939 C 38.021 16.115,35.600 19.250,35.600 19.984 C 35.600 20.213,35.420 20.400,35.200 20.400 C 34.980 20.400,34.800 20.670,34.800 21.000 C 34.800 21.330,34.620 21.600,34.400 21.600 C 34.180 21.600,34.000 21.865,34.000 22.188 C 34.000 22.511,33.640 23.417,33.200 24.200 C 32.760 24.983,32.400 25.899,32.400 26.236 C 32.400 26.572,32.258 26.760,32.085 26.652 C 31.912 26.545,31.730 26.932,31.683 27.511 C 31.635 28.091,31.416 28.744,31.198 28.962 C 30.979 29.181,30.800 29.924,30.800 30.613 C 30.800 31.303,30.668 31.999,30.506 32.160 C 29.352 33.315,28.635 51.992,29.586 56.123 C 29.799 57.045,30.067 58.970,30.183 60.400 C 30.298 61.830,30.579 64.260,30.808 65.800 C 31.036 67.340,31.325 69.410,31.450 70.400 C 31.575 71.390,31.840 72.371,32.039 72.580 C 32.237 72.789,32.400 73.723,32.400 74.656 C 32.400 75.589,32.580 76.464,32.800 76.600 C 33.020 76.736,33.200 77.456,33.200 78.200 C 33.200 78.944,33.380 79.664,33.600 79.800 C 33.820 79.936,34.000 80.656,34.000 81.400 C 34.000 82.144,34.180 82.864,34.400 83.000 C 34.620 83.136,34.800 83.766,34.800 84.400 C 34.800 85.034,34.980 85.664,35.200 85.800 C 35.420 85.936,35.600 86.476,35.600 87.000 C 35.600 87.524,35.780 88.064,36.000 88.200 C 36.220 88.336,36.400 88.966,36.400 89.600 C 36.400 90.234,36.580 90.864,36.800 91.000 C 37.020 91.136,37.200 91.687,37.200 92.224 C 37.200 92.761,37.380 93.200,37.600 93.200 C 37.820 93.200,38.000 93.549,38.000 93.976 C 38.000 94.403,38.180 94.864,38.400 95.000 C 38.620 95.136,38.800 95.687,38.800 96.224 C 38.800 96.761,38.980 97.200,39.200 97.200 C 39.420 97.200,39.600 97.639,39.600 98.176 C 39.600 98.713,39.780 99.264,40.000 99.400 C 40.220 99.536,40.400 99.997,40.400 100.424 C 40.400 100.851,40.580 101.200,40.800 101.200 C 41.020 101.200,41.200 101.560,41.200 102.000 C 41.200 102.440,41.342 102.800,41.515 102.800 C 41.688 102.800,41.860 103.202,41.897 103.694 C 41.934 104.186,42.142 104.647,42.360 104.720 C 42.577 104.792,42.663 105.092,42.550 105.385 C 42.438 105.679,42.538 106.038,42.773 106.183 C 43.008 106.328,43.200 106.797,43.200 107.224 C 43.200 107.651,43.358 108.000,43.551 108.000 C 43.947 108.000,45.048 110.419,44.885 110.930 C 44.827 111.111,44.965 111.145,45.190 111.006 C 45.534 110.794,45.808 111.772,45.500 112.109 C 45.445 112.170,45.760 112.605,46.201 113.078 C 46.641 113.551,47.508 114.938,48.127 116.162 C 48.747 117.385,49.417 118.487,49.616 118.610 C 49.815 118.733,50.274 119.456,50.635 120.217 C 50.996 120.978,51.451 121.600,51.646 121.600 C 51.841 121.600,52.000 121.870,52.000 122.200 C 52.000 122.530,52.168 122.800,52.373 122.800 C 52.578 122.800,52.862 123.166,53.004 123.613 C 53.146 124.060,53.698 124.862,54.231 125.395 C 54.764 125.928,55.200 126.576,55.200 126.835 C 55.200 127.094,55.526 127.597,55.925 127.953 C 56.324 128.309,57.233 129.455,57.944 130.500 C 58.656 131.545,59.440 132.400,59.686 132.400 C 59.932 132.400,60.025 132.508,59.893 132.640 C 59.761 132.772,60.226 133.515,60.927 134.290 C 61.627 135.066,62.140 135.903,62.067 136.150 C 61.993 136.398,62.060 136.474,62.214 136.319 C 62.486 136.047,63.600 136.900,63.600 137.380 C 63.600 137.511,64.590 138.577,65.800 139.749 C 67.010 140.921,68.000 141.825,68.000 141.758 C 68.000 141.692,69.437 143.069,71.194 144.819 C 72.951 146.568,74.551 148.000,74.749 148.000 C 74.948 148.000,75.535 148.538,76.055 149.196 C 76.575 149.854,77.225 150.394,77.500 150.396 C 77.775 150.398,78.000 150.580,78.000 150.800 C 78.000 151.020,78.178 151.200,78.395 151.200 C 78.757 151.200,79.787 151.939,80.945 153.029 C 81.195 153.264,81.580 153.511,81.800 153.576 C 82.616 153.818,83.586 154.680,83.331 154.936 C 83.186 155.081,83.457 155.200,83.933 155.200 C 84.410 155.200,84.800 155.360,84.800 155.556 C 84.800 155.752,85.636 156.305,86.658 156.785 C 87.680 157.265,88.772 157.915,89.086 158.229 C 89.400 158.543,90.004 158.800,90.429 158.800 C 90.853 158.800,91.200 158.980,91.200 159.200 C 91.200 159.420,91.470 159.600,91.800 159.600 C 92.130 159.600,92.400 159.780,92.400 160.000 C 92.400 160.220,92.835 160.400,93.367 160.400 C 93.898 160.400,94.393 160.536,94.467 160.702 C 94.660 161.139,99.920 163.733,100.613 163.733 C 100.936 163.733,101.200 163.883,101.200 164.067 C 101.200 164.250,101.650 164.400,102.200 164.400 C 102.750 164.400,103.200 164.580,103.200 164.800 C 103.200 165.020,103.639 165.200,104.176 165.200 C 104.713 165.200,105.264 165.380,105.400 165.600 C 105.536 165.820,106.087 166.000,106.624 166.000 C 107.161 166.000,107.600 166.160,107.600 166.355 C 107.600 166.550,108.185 166.826,108.900 166.969 C 112.042 167.598,112.380 167.709,112.172 168.045 C 112.052 168.240,112.278 168.401,112.676 168.401 C 113.590 168.403,116.800 171.106,116.800 171.873 C 116.800 172.189,116.953 172.353,117.140 172.237 C 117.327 172.122,117.708 172.516,117.986 173.114 C 118.265 173.711,118.652 174.513,118.847 174.895 C 119.295 175.777,119.314 182.117,118.867 181.841 C 118.683 181.728,118.533 181.877,118.533 182.173 C 118.533 183.097,117.233 185.502,116.602 185.744 C 116.271 185.871,116.000 186.251,116.000 186.587 C 116.000 186.924,115.700 187.200,115.333 187.200 C 114.967 187.200,114.784 187.317,114.927 187.461 C 115.231 187.765,113.379 188.800,112.531 188.800 C 112.213 188.800,112.064 188.980,112.200 189.200 C 112.336 189.420,112.087 189.600,111.647 189.600 C 111.207 189.600,110.736 189.780,110.600 190.000 C 110.276 190.524,105.200 190.524,105.200 190.000 C 105.200 189.760,103.600 189.600,101.200 189.600 C 98.800 189.600,97.200 189.760,97.200 190.000 C 97.200 190.220,96.840 190.400,96.400 190.400 C 95.960 190.400,95.600 190.580,95.600 190.800 C 95.600 191.020,95.465 191.160,95.300 191.111 C 94.466 190.864,91.200 193.692,91.200 194.661 C 91.200 194.958,91.020 195.200,90.800 195.200 C 90.580 195.200,90.400 195.470,90.400 195.800 C 90.400 196.130,90.220 196.400,90.000 196.400 C 89.780 196.400,89.600 196.940,89.600 197.600 C 89.600 198.260,89.420 198.800,89.200 198.800 C 88.675 198.800,88.675 204.275,89.200 204.600 C 89.420 204.736,89.600 205.377,89.600 206.024 C 89.600 206.671,89.750 207.200,89.932 207.200 C 90.115 207.200,90.519 207.695,90.830 208.300 C 91.140 208.905,91.738 209.715,92.158 210.100 C 92.579 210.485,92.792 210.800,92.633 210.800 C 92.473 210.800,92.613 211.070,92.943 211.400 C 93.273 211.730,93.804 212.000,94.122 212.000 C 94.441 212.000,94.924 212.268,95.196 212.596 C 95.468 212.923,95.850 213.093,96.045 212.972 C 96.240 212.851,96.400 212.924,96.400 213.133 C 96.400 213.529,98.018 213.894,101.400 214.258 C 102.500 214.377,103.571 214.637,103.780 214.837 C 104.301 215.334,112.290 215.301,112.600 214.800 C 112.736 214.580,113.737 214.400,114.824 214.400 C 115.911 214.400,116.800 214.220,116.800 214.000 C 116.800 213.780,117.239 213.600,117.776 213.600 C 118.313 213.600,118.864 213.420,119.000 213.200 C 119.136 212.980,119.571 212.800,119.967 212.800 C 120.752 212.800,125.717 210.387,125.933 209.900 C 126.007 209.735,126.335 209.600,126.662 209.600 C 126.989 209.600,127.529 209.328,127.861 208.996 C 128.193 208.664,128.658 208.512,128.894 208.658 C 129.149 208.815,129.207 208.736,129.038 208.462 C 128.869 208.188,129.007 208.000,129.376 208.000 C 129.719 208.000,130.000 207.790,130.000 207.533 C 130.000 207.277,130.107 207.174,130.238 207.305 C 130.370 207.436,131.127 206.836,131.922 205.972 C 132.717 205.107,133.605 204.400,133.896 204.400 C 134.187 204.400,134.544 204.085,134.690 203.700 C 134.836 203.315,135.193 202.759,135.484 202.465 C 135.774 202.171,136.503 201.271,137.104 200.465 C 137.704 199.659,138.286 198.910,138.398 198.800 C 138.945 198.259,140.409 195.198,140.126 195.188 C 139.947 195.181,140.098 195.002,140.463 194.789 C 141.485 194.192,140.934 193.019,138.664 190.952 C 132.072 184.954,124.718 175.271,120.471 167.000 C 118.312 162.796,116.400 158.508,116.400 157.870 C 116.400 157.589,116.249 157.189,116.063 156.980 C 115.878 156.771,115.326 155.250,114.836 153.600 C 114.346 151.950,113.795 150.150,113.611 149.600 C 113.427 149.050,113.069 147.700,112.815 146.600 C 111.741 141.952,111.614 141.665,110.330 141.025 C 109.641 140.681,108.824 140.400,108.515 140.400 C 108.206 140.400,108.064 140.220,108.200 140.000 C 108.341 139.772,107.996 139.600,107.400 139.600 C 106.804 139.600,106.459 139.428,106.600 139.200 C 106.736 138.980,106.612 138.799,106.324 138.798 C 105.714 138.796,102.152 137.037,101.231 136.282 C 100.884 135.998,100.108 135.519,99.507 135.219 C 98.905 134.918,98.058 134.341,97.623 133.936 C 97.189 133.531,96.680 133.200,96.492 133.200 C 96.304 133.200,95.802 132.880,95.375 132.489 C 94.949 132.098,93.970 131.340,93.200 130.804 C 92.430 130.269,91.042 129.059,90.115 128.115 C 89.188 127.172,88.233 126.400,87.991 126.400 C 87.750 126.400,87.664 126.220,87.800 126.000 C 87.936 125.780,87.786 125.600,87.466 125.600 C 87.147 125.600,86.772 125.304,86.633 124.943 C 86.495 124.581,86.269 124.398,86.131 124.535 C 85.757 124.909,84.376 123.162,84.670 122.687 C 84.810 122.461,84.741 122.389,84.517 122.527 C 84.294 122.666,83.411 121.961,82.556 120.962 C 81.700 119.964,80.595 118.717,80.100 118.191 C 79.605 117.666,79.200 117.018,79.200 116.752 C 79.200 116.485,79.081 116.386,78.935 116.531 C 78.790 116.677,78.219 116.122,77.666 115.298 C 77.113 114.474,76.526 113.708,76.362 113.596 C 76.198 113.484,76.005 113.131,75.932 112.812 C 75.735 111.947,75.050 111.254,74.638 111.504 C 74.439 111.625,74.385 111.549,74.517 111.335 C 74.649 111.121,74.299 110.452,73.740 109.848 C 73.180 109.245,72.690 108.537,72.651 108.275 C 72.612 108.014,72.024 106.990,71.344 106.000 C 69.708 103.619,67.600 99.631,67.600 98.920 C 67.600 98.608,67.440 98.451,67.245 98.572 C 66.954 98.752,66.538 97.996,66.254 96.768 C 66.085 96.040,64.152 92.179,63.900 92.067 C 63.735 91.993,63.600 91.488,63.600 90.943 C 63.600 90.385,63.426 90.061,63.200 90.200 C 62.967 90.344,62.800 89.937,62.800 89.224 C 62.800 88.551,62.620 88.000,62.400 88.000 C 62.180 88.000,62.000 87.651,62.000 87.224 C 62.000 86.797,61.820 86.336,61.600 86.200 C 61.380 86.064,61.200 85.513,61.200 84.976 C 61.200 84.439,61.059 84.000,60.887 84.000 C 60.715 84.000,60.534 83.505,60.484 82.900 C 60.434 82.295,60.215 81.740,59.997 81.667 C 59.778 81.593,59.600 81.008,59.600 80.367 C 59.600 79.725,59.420 79.200,59.200 79.200 C 58.980 79.200,58.836 79.065,58.879 78.900 C 58.923 78.735,58.815 77.700,58.640 76.600 C 58.464 75.500,58.326 74.510,58.332 74.400 C 58.338 74.290,58.102 73.930,57.808 73.600 C 57.513 73.270,57.324 72.415,57.387 71.700 C 57.450 70.985,57.373 70.400,57.215 70.400 C 56.895 70.400,56.068 65.874,55.936 63.400 C 55.889 62.520,55.727 61.620,55.574 61.400 C 55.422 61.180,55.209 60.010,55.101 58.800 C 54.993 57.590,54.760 56.255,54.584 55.834 C 54.333 55.235,54.387 55.143,54.832 55.411 C 55.297 55.692,55.311 55.643,54.907 55.145 C 54.263 54.348,54.141 38.099,54.775 37.465 C 55.009 37.231,55.200 36.716,55.200 36.320 C 55.200 35.924,55.380 35.600,55.600 35.600 C 55.820 35.600,56.000 35.240,56.000 34.800 C 56.000 34.360,56.191 34.000,56.424 34.000 C 56.657 34.000,56.736 33.820,56.600 33.600 C 56.464 33.380,56.543 33.200,56.776 33.200 C 57.009 33.200,57.200 32.840,57.200 32.400 C 57.200 31.920,57.467 31.600,57.867 31.600 C 58.233 31.600,58.426 31.493,58.296 31.362 C 57.945 31.011,62.279 26.800,62.991 26.800 C 63.326 26.800,63.600 26.620,63.600 26.400 C 63.600 26.180,63.960 26.000,64.400 26.000 C 64.840 26.000,65.200 25.836,65.200 25.635 C 65.200 25.269,67.069 24.868,69.500 24.713 C 70.215 24.667,70.800 24.469,70.800 24.273 C 70.800 24.077,71.565 24.024,72.500 24.157 C 73.435 24.289,74.920 24.480,75.800 24.580 C 78.477 24.886,80.000 25.272,80.000 25.645 C 80.000 25.840,80.190 26.000,80.421 26.000 C 81.171 26.000,83.605 27.861,83.298 28.200 C 83.134 28.380,83.209 28.408,83.465 28.262 C 83.963 27.977,87.200 30.844,87.200 31.569 C 87.200 31.806,87.380 32.000,87.600 32.000 C 87.820 32.000,88.004 32.225,88.009 32.500 C 88.014 32.775,88.370 33.450,88.800 34.000 C 89.230 34.550,89.586 35.315,89.591 35.700 C 89.596 36.085,89.780 36.400,90.000 36.400 C 90.220 36.400,90.400 37.131,90.400 38.024 C 90.400 39.004,90.558 39.549,90.800 39.400 C 91.054 39.243,91.200 40.321,91.200 42.353 C 91.200 44.113,91.380 45.664,91.600 45.800 C 91.820 45.936,92.000 46.476,92.000 47.000 C 92.000 47.524,92.183 48.066,92.407 48.204 C 92.630 48.342,92.730 48.589,92.629 48.753 C 92.528 48.916,93.130 49.799,93.967 50.714 C 94.803 51.630,95.378 52.502,95.244 52.653 C 95.110 52.805,95.213 52.806,95.472 52.658 C 95.732 52.509,96.055 52.565,96.189 52.783 C 96.324 53.000,97.101 53.469,97.917 53.823 C 98.733 54.177,99.713 54.632,100.095 54.834 C 101.797 55.731,107.005 55.108,109.400 53.721 C 111.204 52.675,110.713 20.945,108.862 18.959 C 108.473 18.541,108.095 18.020,108.022 17.800 C 107.574 16.458,100.800 8.917,100.800 9.760 C 100.800 9.849,100.241 9.399,99.558 8.760 C 98.874 8.122,98.104 7.600,97.846 7.600 C 97.588 7.600,97.117 7.240,96.800 6.800 C 96.483 6.360,95.986 6.000,95.695 6.000 C 95.404 6.000,94.780 5.640,94.308 5.200 C 93.836 4.760,93.213 4.400,92.925 4.400 C 92.636 4.400,92.400 4.220,92.400 4.000 C 92.400 3.780,92.051 3.600,91.624 3.600 C 91.197 3.600,90.736 3.420,90.600 3.200 C 90.464 2.980,89.993 2.800,89.553 2.800 C 89.113 2.800,88.845 2.650,88.959 2.467 C 89.072 2.283,88.906 2.133,88.590 2.133 C 87.770 2.133,84.745 1.205,83.800 0.663 C 83.019 0.215,65.483 -0.097,62.500 0.285 M200.000 29.989 L 200.000 60.000 191.777 60.000 C 179.556 60.000,176.425 61.236,173.758 67.111 C 170.235 74.875,175.696 82.869,184.996 83.561 L 188.200 83.800 188.400 115.800 L 188.600 147.800 189.725 150.092 C 191.378 153.458,194.387 155.698,198.107 156.333 L 199.800 156.622 199.902 187.989 C 199.959 205.240,199.867 219.493,199.698 219.662 C 199.529 219.831,191.157 219.992,181.094 220.020 C 171.030 220.048,162.886 220.216,162.996 220.394 C 163.189 220.706,162.582 221.082,161.836 221.113 C 161.636 221.122,161.312 221.414,161.116 221.764 C 160.920 222.114,160.528 222.400,160.243 222.400 C 159.959 222.400,159.383 223.075,158.963 223.900 C 158.543 224.725,158.065 225.460,157.900 225.533 C 157.735 225.607,157.600 225.922,157.600 226.233 C 157.600 226.545,157.420 226.800,157.200 226.800 C 156.667 226.800,156.667 235.471,157.200 235.800 C 157.420 235.936,157.600 236.363,157.600 236.748 C 157.600 237.134,157.960 237.836,158.400 238.308 C 158.840 238.780,159.200 239.354,159.200 239.583 C 159.200 239.812,159.391 240.000,159.624 240.000 C 159.857 240.000,159.936 240.180,159.800 240.400 C 159.664 240.620,159.833 240.800,160.176 240.800 C 160.519 240.800,160.800 240.980,160.800 241.200 C 160.800 241.420,161.160 241.600,161.600 241.600 C 162.040 241.600,162.400 241.780,162.400 242.000 C 162.400 242.220,162.681 242.400,163.024 242.400 C 163.367 242.400,163.546 242.564,163.422 242.764 C 163.289 242.979,170.541 243.149,181.263 243.180 C 191.199 243.208,199.479 243.325,199.664 243.440 C 199.849 243.554,200.000 257.769,200.000 275.030 L 200.000 306.413 164.800 306.306 C 145.440 306.248,129.600 306.335,129.600 306.500 C 129.600 307.059,269.579 306.509,270.483 305.946 C 270.899 305.687,270.902 305.467,270.500 304.818 C 270.225 304.374,270.000 303.288,270.000 302.405 C 270.000 301.522,269.820 300.800,269.600 300.800 C 269.380 300.800,269.200 300.271,269.200 299.624 C 269.200 298.977,269.020 298.336,268.800 298.200 C 268.580 298.064,268.400 297.524,268.400 297.000 C 268.400 296.476,268.220 295.936,268.000 295.800 C 267.780 295.664,267.600 295.023,267.600 294.376 C 267.600 293.729,267.420 293.200,267.200 293.200 C 266.980 293.200,266.800 292.750,266.800 292.200 C 266.800 291.650,266.620 291.200,266.400 291.200 C 266.180 291.200,266.000 290.840,266.000 290.400 C 266.000 289.960,265.820 289.600,265.600 289.600 C 265.380 289.600,265.200 289.223,265.200 288.763 C 265.200 288.303,264.840 287.469,264.400 286.909 C 263.960 286.350,263.600 285.646,263.600 285.346 C 263.600 285.046,263.420 284.800,263.200 284.800 C 262.980 284.800,262.800 284.440,262.800 284.000 C 262.800 283.560,262.620 283.200,262.400 283.200 C 262.180 283.200,262.000 282.922,262.000 282.583 C 262.000 282.244,261.640 281.580,261.200 281.108 C 260.760 280.636,260.400 280.013,260.400 279.725 C 260.400 279.436,260.220 279.200,260.000 279.200 C 259.780 279.200,259.600 278.829,259.600 278.376 C 259.600 277.923,259.420 277.664,259.200 277.800 C 258.980 277.936,258.800 277.767,258.800 277.424 C 258.800 277.081,258.620 276.800,258.400 276.800 C 258.180 276.800,257.999 276.575,257.998 276.300 C 257.997 276.025,257.201 274.961,256.229 273.935 C 255.258 272.909,254.565 271.969,254.689 271.844 C 254.813 271.720,254.619 271.505,254.257 271.367 C 253.896 271.228,253.600 270.853,253.600 270.534 C 253.600 270.214,253.420 270.064,253.200 270.200 C 252.980 270.336,252.800 270.292,252.800 270.103 C 252.800 269.591,249.217 266.000,248.707 266.000 C 248.465 266.000,248.383 265.883,248.526 265.741 C 248.800 265.466,247.306 264.000,246.752 264.000 C 246.573 264.000,245.752 263.325,244.927 262.500 C 244.102 261.675,243.355 261.072,243.268 261.161 C 243.180 261.249,242.653 260.979,242.096 260.561 C 241.539 260.142,240.962 259.800,240.815 259.800 C 240.668 259.800,240.088 259.305,239.528 258.700 C 238.967 258.095,238.214 257.600,237.854 257.600 C 237.494 257.600,237.200 257.420,237.200 257.200 C 237.200 256.980,236.840 256.800,236.400 256.800 C 235.631 256.800,235.600 256.533,235.600 249.900 L 235.600 243.000 217.900 243.000 L 200.200 243.000 200.200 231.600 L 200.200 220.200 217.900 220.200 L 235.600 220.200 235.600 214.583 L 235.600 208.965 238.608 207.623 C 240.262 206.885,241.995 205.951,242.459 205.549 C 242.923 205.146,243.460 204.913,243.652 205.032 C 243.843 205.150,244.000 205.057,244.000 204.824 C 244.000 204.591,244.281 204.400,244.624 204.400 C 244.967 204.400,245.133 204.216,244.994 203.990 C 244.855 203.765,244.889 203.627,245.070 203.685 C 245.581 203.848,248.000 202.747,248.000 202.351 C 248.000 202.158,248.278 202.000,248.618 202.000 C 248.958 202.000,249.686 201.550,250.236 201.000 C 250.786 200.450,251.400 200.000,251.600 200.000 C 251.800 200.000,252.385 199.595,252.900 199.100 C 253.415 198.605,254.087 198.144,254.393 198.075 C 254.699 198.006,255.252 197.601,255.622 197.175 C 255.991 196.749,256.508 196.400,256.771 196.400 C 257.033 196.400,257.136 196.220,257.000 196.000 C 256.864 195.780,257.024 195.600,257.356 195.600 C 257.688 195.600,258.463 194.927,259.080 194.104 C 259.696 193.281,261.560 191.256,263.222 189.604 C 264.885 187.952,267.225 185.430,268.422 184.000 C 269.620 182.570,270.699 181.310,270.819 181.200 C 270.940 181.090,271.471 180.370,272.000 179.600 C 272.529 178.830,273.066 178.110,273.195 178.000 C 274.648 176.753,281.140 164.920,283.289 159.600 C 283.512 159.050,283.852 158.287,284.047 157.905 C 284.241 157.523,284.400 156.848,284.400 156.405 C 284.400 155.962,284.580 155.600,284.800 155.600 C 285.020 155.600,285.200 155.161,285.200 154.624 C 285.200 154.087,285.380 153.536,285.600 153.400 C 285.820 153.264,286.000 152.634,286.000 152.000 C 286.000 151.366,286.159 150.749,286.354 150.629 C 286.549 150.508,286.810 149.913,286.936 149.305 C 288.223 143.072,288.837 140.800,289.232 140.800 C 289.435 140.800,289.600 139.720,289.600 138.400 C 289.600 136.955,289.771 136.000,290.030 136.000 C 290.336 136.000,290.423 117.408,290.330 71.800 C 290.259 36.490,290.087 7.600,289.949 7.600 C 289.810 7.600,289.455 7.015,289.159 6.300 C 288.604 4.961,288.188 4.381,286.300 2.318 C 285.695 1.656,285.194 1.269,285.187 1.458 C 285.180 1.646,284.903 1.440,284.570 1.000 C 283.973 0.210,283.432 0.199,241.983 0.089 L 200.000 -0.021 200.000 29.989 M205.000 61.374 C 207.564 62.529,209.452 64.449,210.656 67.124 L 211.611 69.249 211.506 108.724 L 211.400 148.200 210.403 150.152 C 208.717 153.453,204.175 156.586,201.457 156.322 L 200.200 156.200 200.097 108.600 C 200.040 82.420,200.085 60.761,200.197 60.468 C 200.453 59.795,202.246 60.133,205.000 61.374 " stroke="none" fill="#fbac5c" fill-rule="evenodd"></path><path id="path3" d="M317.800 0.272 C 316.920 0.372,316.029 0.621,315.820 0.827 C 315.611 1.032,314.936 1.200,314.320 1.200 C 313.704 1.200,313.200 1.380,313.200 1.600 C 313.200 1.820,312.851 2.000,312.424 2.000 C 311.997 2.000,311.536 2.180,311.400 2.400 C 311.264 2.620,310.713 2.800,310.176 2.800 C 309.639 2.800,309.200 2.980,309.200 3.200 C 309.200 3.420,308.840 3.600,308.400 3.600 C 307.960 3.600,307.600 3.780,307.600 4.000 C 307.600 4.220,307.280 4.400,306.888 4.400 C 306.497 4.400,305.917 4.760,305.600 5.200 C 305.283 5.640,304.703 6.000,304.312 6.000 C 303.920 6.000,303.600 6.180,303.600 6.400 C 303.600 6.620,303.330 6.800,303.000 6.800 C 302.670 6.800,302.400 6.980,302.400 7.200 C 302.400 7.420,302.218 7.600,301.997 7.600 C 301.024 7.600,293.379 15.138,292.380 17.082 C 292.064 17.697,291.444 18.530,291.003 18.933 C 289.739 20.088,289.515 52.489,290.763 53.651 C 291.205 54.063,291.833 54.400,292.160 54.400 C 292.486 54.400,292.864 54.580,293.000 54.800 C 293.305 55.294,299.350 55.333,300.305 54.847 C 300.687 54.652,301.537 54.247,302.194 53.947 C 304.395 52.940,306.476 50.981,307.283 49.157 C 307.565 48.521,307.901 48.000,308.031 48.000 C 308.365 48.000,308.438 47.461,308.660 43.400 C 308.768 41.420,309.024 39.629,309.228 39.420 C 309.433 39.211,309.600 38.547,309.600 37.944 C 309.600 37.341,309.780 36.736,310.000 36.600 C 310.220 36.464,310.400 36.003,310.400 35.576 C 310.400 35.149,310.580 34.800,310.800 34.800 C 311.020 34.800,311.200 34.480,311.200 34.088 C 311.200 33.697,311.560 33.117,312.000 32.800 C 312.440 32.483,312.800 32.028,312.800 31.790 C 312.800 31.152,315.228 28.684,316.500 28.031 C 317.105 27.719,317.600 27.315,317.600 27.132 C 317.600 26.950,317.870 26.800,318.200 26.800 C 318.530 26.800,318.800 26.620,318.800 26.400 C 318.800 26.180,319.160 26.000,319.600 26.000 C 320.040 26.000,320.400 25.842,320.400 25.649 C 320.400 25.284,325.842 24.261,327.600 24.295 C 329.554 24.332,334.800 25.328,334.800 25.661 C 334.800 25.848,335.160 26.000,335.600 26.000 C 336.040 26.000,336.400 26.150,336.400 26.332 C 336.400 26.515,336.895 26.920,337.500 27.232 C 344.562 30.877,347.167 41.915,344.853 58.400 C 344.183 63.175,343.165 69.050,342.600 71.400 C 342.495 71.840,342.293 73.059,342.151 74.109 C 342.010 75.159,341.738 76.115,341.547 76.233 C 341.356 76.351,341.200 76.977,341.200 77.624 C 341.200 78.271,341.020 78.800,340.800 78.800 C 340.580 78.800,340.400 79.329,340.400 79.976 C 340.400 80.623,340.220 81.264,340.000 81.400 C 339.780 81.536,339.600 81.999,339.600 82.429 C 339.600 82.859,339.420 83.568,339.200 84.005 C 338.980 84.442,338.620 85.158,338.400 85.595 C 338.180 86.032,338.000 86.752,338.000 87.195 C 338.000 87.638,337.853 88.000,337.672 88.000 C 337.492 88.000,337.100 88.900,336.800 90.000 C 336.500 91.100,336.108 92.000,335.928 92.000 C 335.747 92.000,335.600 92.360,335.600 92.800 C 335.600 93.240,335.420 93.600,335.200 93.600 C 334.980 93.600,334.800 93.960,334.800 94.400 C 334.800 94.840,334.620 95.200,334.400 95.200 C 334.180 95.200,334.000 95.465,334.000 95.789 C 334.000 96.113,333.548 97.148,332.995 98.089 C 332.442 99.030,331.680 100.475,331.301 101.300 C 330.922 102.125,330.474 102.800,330.306 102.800 C 330.138 102.800,330.000 103.160,330.000 103.600 C 330.000 104.040,329.849 104.400,329.664 104.400 C 329.480 104.400,329.118 104.862,328.860 105.427 C 328.603 105.992,327.539 107.725,326.496 109.279 C 325.453 110.833,324.420 112.394,324.200 112.747 C 323.980 113.100,323.521 113.661,323.181 113.994 C 322.841 114.327,322.125 115.230,321.592 116.000 C 319.420 119.133,310.806 127.762,307.601 130.016 C 306.831 130.557,305.931 131.271,305.601 131.603 C 305.270 131.934,304.505 132.460,303.900 132.770 C 303.295 133.081,302.800 133.485,302.800 133.668 C 302.800 133.850,302.564 134.000,302.275 134.000 C 301.987 134.000,301.364 134.360,300.892 134.800 C 300.420 135.240,299.923 135.600,299.789 135.600 C 299.654 135.600,298.792 136.111,297.872 136.735 C 296.952 137.359,295.615 138.123,294.900 138.432 C 294.185 138.742,293.600 139.131,293.600 139.298 C 293.600 139.464,293.240 139.600,292.800 139.600 C 292.360 139.600,292.000 139.780,292.000 140.000 C 292.000 140.220,291.482 140.400,290.849 140.400 C 288.922 140.400,288.645 141.031,286.936 149.305 C 286.810 149.913,286.549 150.508,286.354 150.629 C 286.159 150.749,286.000 151.366,286.000 152.000 C 286.000 152.634,285.820 153.264,285.600 153.400 C 285.380 153.536,285.200 154.087,285.200 154.624 C 285.200 155.161,285.020 155.600,284.800 155.600 C 284.580 155.600,284.400 155.962,284.400 156.405 C 284.400 156.848,284.241 157.523,284.047 157.905 C 283.852 158.287,283.512 159.050,283.289 159.600 C 281.140 164.920,274.648 176.753,273.195 178.000 C 273.066 178.110,272.529 178.830,272.000 179.600 C 271.471 180.370,270.940 181.090,270.819 181.200 C 270.699 181.310,269.616 182.570,268.413 184.000 C 267.211 185.430,264.646 188.183,262.713 190.119 C 260.781 192.054,259.200 193.855,259.200 194.122 C 259.200 194.748,261.142 198.399,261.853 199.111 C 262.154 199.411,262.400 199.842,262.400 200.067 C 262.400 200.785,270.391 208.382,271.416 208.640 C 271.957 208.776,272.400 209.047,272.400 209.243 C 272.400 209.440,272.720 209.600,273.112 209.600 C 273.503 209.600,274.083 209.960,274.400 210.400 C 274.717 210.840,275.209 211.200,275.494 211.200 C 275.778 211.200,276.323 211.359,276.705 211.553 C 277.087 211.748,277.940 212.129,278.600 212.400 C 279.260 212.671,280.113 213.052,280.495 213.247 C 280.877 213.441,281.642 213.600,282.195 213.600 C 282.748 213.600,283.200 213.780,283.200 214.000 C 283.200 214.220,284.179 214.400,285.376 214.400 C 286.573 214.400,287.664 214.580,287.800 214.800 C 287.940 215.027,289.930 215.200,292.400 215.200 C 294.870 215.200,296.860 215.027,297.000 214.800 C 297.136 214.580,298.137 214.400,299.224 214.400 C 300.311 214.400,301.200 214.220,301.200 214.000 C 301.200 213.780,301.830 213.600,302.600 213.600 C 303.370 213.600,304.000 213.464,304.000 213.298 C 304.000 213.131,304.520 212.765,305.155 212.484 C 306.904 211.710,309.600 208.879,309.600 207.817 C 309.600 207.478,309.780 207.200,310.000 207.200 C 310.220 207.200,310.400 206.761,310.400 206.224 C 310.400 205.687,310.580 205.136,310.800 205.000 C 311.306 204.688,311.327 199.025,310.826 198.095 C 310.621 197.713,310.217 196.815,309.929 196.100 C 309.640 195.385,309.269 194.800,309.102 194.800 C 308.936 194.800,308.800 194.612,308.800 194.382 C 308.800 193.839,306.961 192.000,306.418 192.000 C 306.188 192.000,306.000 191.820,306.000 191.600 C 306.000 191.380,305.730 191.200,305.400 191.200 C 305.070 191.200,304.800 191.020,304.800 190.800 C 304.800 190.580,304.350 190.400,303.800 190.400 C 303.250 190.400,302.800 190.220,302.800 190.000 C 302.800 189.469,294.928 189.469,294.600 190.000 C 294.277 190.522,290.000 190.522,290.000 190.000 C 290.000 189.780,289.638 189.600,289.195 189.600 C 288.477 189.600,286.938 188.939,286.400 188.399 C 286.290 188.289,285.740 187.963,285.179 187.674 C 284.617 187.385,283.719 186.440,283.184 185.575 C 282.649 184.709,282.074 184.000,281.906 184.000 C 281.738 184.000,281.600 183.561,281.600 183.024 C 281.600 182.487,281.420 181.936,281.200 181.800 C 280.980 181.664,280.800 180.123,280.800 178.376 C 280.800 176.525,280.967 175.200,281.200 175.200 C 281.420 175.200,281.600 174.913,281.600 174.562 C 281.600 172.553,287.003 167.600,289.195 167.600 C 289.638 167.600,290.000 167.420,290.000 167.200 C 290.000 166.980,290.540 166.800,291.200 166.800 C 291.860 166.800,292.400 166.620,292.400 166.400 C 292.400 166.180,292.940 166.000,293.600 166.000 C 294.260 166.000,294.800 165.820,294.800 165.600 C 294.800 165.380,295.340 165.200,296.000 165.200 C 296.660 165.200,297.200 165.020,297.200 164.800 C 297.200 164.580,297.549 164.400,297.976 164.400 C 298.403 164.400,298.864 164.220,299.000 164.000 C 299.136 163.780,299.687 163.600,300.224 163.600 C 300.761 163.600,301.200 163.420,301.200 163.200 C 301.200 162.980,301.560 162.800,302.000 162.800 C 302.440 162.800,302.800 162.620,302.800 162.400 C 302.800 162.180,303.160 162.000,303.600 162.000 C 304.040 162.000,304.400 161.820,304.400 161.600 C 304.400 161.380,304.760 161.200,305.200 161.200 C 305.640 161.200,306.000 161.054,306.000 160.875 C 306.000 160.696,306.630 160.302,307.400 160.000 C 308.170 159.698,308.800 159.304,308.800 159.125 C 308.800 158.946,309.088 158.800,309.440 158.800 C 309.976 158.800,314.562 156.255,315.200 155.603 C 315.310 155.491,315.895 155.144,316.500 154.832 C 317.105 154.520,317.600 154.115,317.600 153.932 C 317.600 153.750,317.836 153.600,318.125 153.600 C 318.413 153.600,319.004 153.285,319.438 152.900 C 319.873 152.515,321.032 151.572,322.014 150.806 C 325.020 148.459,325.195 148.305,328.847 144.800 C 330.795 142.930,333.427 140.407,334.695 139.193 C 337.181 136.812,339.325 134.438,340.600 132.654 C 341.040 132.039,341.805 131.055,342.300 130.468 C 342.794 129.880,343.199 129.263,343.200 129.096 C 343.200 128.929,343.740 128.228,344.400 127.537 C 345.060 126.846,345.600 126.104,345.600 125.888 C 345.600 125.671,345.916 125.203,346.303 124.847 C 346.689 124.491,347.260 123.705,347.570 123.100 C 347.881 122.495,348.285 122.000,348.468 122.000 C 348.650 122.000,348.800 121.745,348.800 121.433 C 348.800 121.122,348.935 120.807,349.100 120.733 C 349.476 120.566,350.775 118.436,351.071 117.500 C 351.193 117.115,351.452 116.800,351.647 116.800 C 351.841 116.800,352.000 116.440,352.000 116.000 C 352.000 115.560,352.137 115.200,352.304 115.200 C 352.472 115.200,353.237 113.985,354.004 112.500 C 354.772 111.015,355.535 109.740,355.700 109.667 C 355.865 109.593,356.000 109.313,356.000 109.044 C 356.000 108.774,356.629 107.304,357.399 105.777 C 358.168 104.250,358.798 102.595,358.799 102.100 C 358.799 101.605,358.980 101.200,359.200 101.200 C 359.420 101.200,359.600 100.840,359.600 100.400 C 359.600 99.960,359.780 99.600,360.000 99.600 C 360.220 99.600,360.400 99.060,360.400 98.400 C 360.400 97.740,360.580 97.200,360.800 97.200 C 361.020 97.200,361.200 96.840,361.200 96.400 C 361.200 95.960,361.380 95.600,361.600 95.600 C 361.820 95.600,362.000 95.060,362.000 94.400 C 362.000 93.740,362.180 93.200,362.400 93.200 C 362.620 93.200,362.800 92.660,362.800 92.000 C 362.800 91.340,362.980 90.800,363.200 90.800 C 363.420 90.800,363.600 90.361,363.600 89.824 C 363.600 89.287,363.780 88.736,364.000 88.600 C 364.220 88.464,364.400 87.823,364.400 87.176 C 364.400 86.529,364.580 86.000,364.800 86.000 C 365.020 86.000,365.200 85.370,365.200 84.600 C 365.200 83.830,365.380 83.200,365.600 83.200 C 365.820 83.200,366.000 82.480,366.000 81.600 C 366.000 80.720,366.180 80.000,366.400 80.000 C 366.620 80.000,366.800 79.280,366.800 78.400 C 366.800 77.520,366.980 76.800,367.200 76.800 C 367.420 76.800,367.600 76.001,367.600 75.024 C 367.600 74.047,367.780 73.136,368.000 73.000 C 368.220 72.864,368.400 71.964,368.400 71.000 C 368.400 70.036,368.580 69.136,368.800 69.000 C 369.020 68.864,369.200 67.593,369.200 66.176 C 369.200 64.725,369.375 63.600,369.600 63.600 C 369.837 63.600,370.000 62.141,370.000 60.024 C 370.000 58.057,370.180 56.336,370.400 56.200 C 370.650 56.046,370.800 52.137,370.800 45.800 C 370.800 39.463,370.650 35.554,370.400 35.400 C 370.180 35.264,370.000 34.454,370.000 33.600 C 370.000 32.746,369.820 31.936,369.600 31.800 C 369.380 31.664,369.200 30.933,369.200 30.176 C 369.200 29.419,369.020 28.800,368.800 28.800 C 368.580 28.800,368.400 28.361,368.400 27.824 C 368.400 27.287,368.220 26.736,368.000 26.600 C 367.780 26.464,367.600 26.003,367.600 25.576 C 367.600 25.149,367.420 24.800,367.200 24.800 C 366.980 24.800,366.800 24.440,366.800 24.000 C 366.800 23.560,366.620 23.200,366.400 23.200 C 366.180 23.200,366.000 22.840,366.000 22.400 C 366.000 21.960,365.820 21.600,365.600 21.600 C 365.380 21.600,365.200 21.364,365.200 21.075 C 365.200 20.787,364.840 20.164,364.400 19.692 C 363.960 19.220,363.600 18.596,363.600 18.305 C 363.600 18.014,363.240 17.517,362.800 17.200 C 362.360 16.883,362.000 16.393,362.000 16.112 C 362.000 15.830,361.820 15.600,361.600 15.600 C 361.380 15.600,361.200 15.412,361.200 15.183 C 361.200 14.470,354.832 8.400,354.085 8.400 C 353.916 8.400,353.517 8.040,353.200 7.600 C 352.883 7.160,352.393 6.800,352.112 6.800 C 351.830 6.800,351.600 6.620,351.600 6.400 C 351.600 6.180,351.330 6.000,351.000 6.000 C 350.670 6.000,350.400 5.820,350.400 5.600 C 350.400 5.380,350.040 5.200,349.600 5.200 C 349.160 5.200,348.800 5.020,348.800 4.800 C 348.800 4.580,348.440 4.400,348.000 4.400 C 347.560 4.400,347.200 4.220,347.200 4.000 C 347.200 3.780,346.840 3.600,346.400 3.600 C 345.960 3.600,345.600 3.420,345.600 3.200 C 345.600 2.980,345.240 2.800,344.800 2.800 C 344.360 2.800,344.000 2.620,344.000 2.400 C 344.000 2.180,343.460 2.000,342.800 2.000 C 342.140 2.000,341.600 1.820,341.600 1.600 C 341.600 1.380,341.075 1.200,340.433 1.200 C 339.792 1.200,339.193 0.978,339.102 0.707 C 338.936 0.209,321.500 -0.147,317.800 0.272 M54.428 55.476 C 54.518 56.515,55.144 57.396,55.172 56.524 C 55.187 56.042,55.020 55.536,54.800 55.400 C 54.580 55.264,54.413 55.298,54.428 55.476 M200.197 60.468 C 200.085 60.761,200.040 82.420,200.097 108.600 L 200.200 156.200 201.457 156.322 C 204.175 156.586,208.717 153.453,210.403 150.152 L 211.400 148.200 211.506 108.724 L 211.611 69.249 210.656 67.124 C 208.817 63.037,201.091 58.120,200.197 60.468 M84.034 122.647 C 84.565 123.333,85.080 123.823,85.179 123.735 C 85.277 123.647,84.843 123.086,84.213 122.488 L 83.069 121.400 84.034 122.647 M200.188 220.487 C 200.077 220.776,200.035 225.959,200.093 232.006 L 200.200 243.000 218.108 243.058 C 235.448 243.115,237.986 242.967,237.997 241.900 C 237.999 241.735,238.280 241.600,238.623 241.600 C 239.347 241.600,241.600 239.262,241.600 238.511 C 241.600 238.230,241.780 238.000,242.000 238.000 C 242.220 238.000,242.400 237.640,242.400 237.200 C 242.400 236.760,242.580 236.400,242.800 236.400 C 243.020 236.400,243.200 236.209,243.200 235.976 C 243.200 235.743,242.975 235.680,242.700 235.835 C 242.300 236.061,242.300 236.010,242.700 235.579 C 243.316 234.915,243.408 227.200,242.800 227.200 C 242.580 227.200,242.400 226.840,242.400 226.400 C 242.400 225.960,242.220 225.600,242.000 225.600 C 241.780 225.600,241.600 225.240,241.600 224.800 C 241.600 223.906,238.612 220.800,237.752 220.800 C 237.448 220.800,237.200 220.639,237.200 220.443 C 237.200 219.819,200.427 219.864,200.188 220.487 M217.330 306.700 C 226.972 306.760,242.632 306.760,252.130 306.700 C 261.629 306.640,253.740 306.591,234.600 306.591 C 215.460 306.591,207.689 306.640,217.330 306.700 M147.900 307.100 C 157.415 307.160,172.985 307.160,182.500 307.100 C 192.015 307.040,184.230 306.991,165.200 306.991 C 146.170 306.991,138.385 307.040,147.900 307.100 " stroke="none" fill="#fc8c34" fill-rule="evenodd"></path><path id="path4" d="M116.900 0.282 C 116.405 0.378,116.000 0.623,116.000 0.828 C 116.000 1.033,115.730 1.200,115.399 1.200 C 114.436 1.200,111.644 4.411,110.545 6.784 C 109.551 8.932,109.538 9.077,109.802 15.584 C 110.092 22.752,110.092 31.578,109.806 94.282 C 109.684 120.962,109.756 135.649,110.009 135.805 C 110.224 135.938,110.400 137.043,110.400 138.261 C 110.400 139.858,110.620 140.753,111.189 141.477 C 111.624 142.030,112.095 143.138,112.237 143.941 C 112.562 145.780,113.308 148.609,114.414 152.200 C 114.888 153.740,115.371 155.408,115.486 155.906 C 115.601 156.404,115.854 156.910,116.048 157.030 C 116.241 157.149,116.400 157.502,116.400 157.814 C 116.400 162.894,129.883 182.961,138.668 190.956 C 139.796 191.983,140.831 193.268,140.967 193.811 C 141.104 194.355,141.347 194.800,141.508 194.801 C 141.668 194.801,142.430 195.341,143.200 196.000 C 143.970 196.659,144.746 197.199,144.924 197.199 C 145.102 197.200,145.136 197.380,145.000 197.600 C 144.864 197.820,145.033 198.000,145.376 198.000 C 145.719 198.000,146.000 198.180,146.000 198.400 C 146.000 198.620,146.188 198.800,146.417 198.800 C 146.646 198.800,147.220 199.160,147.692 199.600 C 148.164 200.040,148.787 200.400,149.075 200.400 C 149.364 200.400,149.600 200.568,149.600 200.773 C 149.600 200.978,149.959 201.260,150.398 201.399 C 150.836 201.538,151.427 201.866,151.710 202.126 C 152.433 202.792,154.466 204.007,155.300 204.271 C 155.685 204.393,156.000 204.652,156.000 204.847 C 156.000 205.041,156.360 205.200,156.800 205.200 C 157.240 205.200,157.600 205.380,157.600 205.600 C 157.600 205.820,157.936 206.000,158.346 206.000 C 158.756 206.000,159.521 206.320,160.046 206.711 C 161.013 207.431,162.435 208.147,163.689 208.547 C 164.291 208.739,164.392 209.481,164.489 214.424 L 164.600 220.082 181.999 220.022 C 191.569 219.988,199.535 219.825,199.702 219.658 C 199.869 219.491,199.959 205.240,199.902 187.989 L 199.800 156.622 198.107 156.333 C 194.387 155.698,191.378 153.458,189.725 150.092 L 188.600 147.800 188.400 115.800 L 188.200 83.800 184.996 83.561 C 175.696 82.869,170.235 74.875,173.758 67.111 C 176.425 61.236,179.556 60.000,191.777 60.000 L 200.000 60.000 200.000 30.000 L 200.000 0.000 158.900 0.054 C 136.295 0.084,117.395 0.187,116.900 0.282 M235.759 214.400 C 235.759 217.590,235.821 218.895,235.897 217.300 C 235.973 215.705,235.973 213.095,235.897 211.500 C 235.821 209.905,235.759 211.210,235.759 214.400 M164.566 243.167 C 164.475 243.258,164.400 246.363,164.400 250.067 C 164.400 256.533,164.368 256.800,163.600 256.800 C 163.160 256.800,162.800 256.947,162.800 257.126 C 162.800 257.306,162.035 257.877,161.100 258.397 C 160.165 258.916,159.268 259.534,159.106 259.770 C 158.944 260.007,158.809 260.073,158.806 259.918 C 158.803 259.763,158.348 260.088,157.797 260.640 C 157.245 261.192,156.615 261.533,156.397 261.398 C 156.178 261.263,156.000 261.433,156.000 261.776 C 156.000 262.119,155.839 262.400,155.642 262.400 C 155.446 262.400,154.716 262.931,154.022 263.580 C 153.327 264.228,152.412 264.869,151.988 265.004 C 151.563 265.139,151.258 265.375,151.308 265.528 C 151.359 265.682,150.277 266.841,148.903 268.104 C 147.530 269.367,146.494 270.400,146.600 270.400 C 146.842 270.400,145.788 271.703,144.100 273.492 C 143.385 274.249,142.800 274.988,142.799 275.134 C 142.799 275.280,142.259 276.030,141.600 276.800 C 140.941 277.570,140.401 278.425,140.401 278.700 C 140.400 278.975,140.220 279.200,140.000 279.200 C 139.780 279.200,139.600 279.571,139.600 280.024 C 139.600 280.477,139.450 280.755,139.268 280.642 C 139.085 280.529,138.691 281.058,138.393 281.818 C 138.095 282.578,137.704 283.200,137.525 283.200 C 137.346 283.200,137.200 283.478,137.200 283.817 C 137.200 284.156,136.840 284.820,136.400 285.292 C 135.960 285.764,135.600 286.567,135.600 287.075 C 135.600 287.584,135.420 288.000,135.200 288.000 C 134.980 288.000,134.800 288.360,134.800 288.800 C 134.800 289.240,134.620 289.600,134.400 289.600 C 134.180 289.600,134.000 289.960,134.000 290.400 C 134.000 290.840,133.820 291.200,133.600 291.200 C 133.380 291.200,133.200 291.639,133.200 292.176 C 133.200 292.713,133.020 293.264,132.800 293.400 C 132.580 293.536,132.400 294.076,132.400 294.600 C 132.400 295.124,132.220 295.664,132.000 295.800 C 131.780 295.936,131.600 296.487,131.600 297.024 C 131.600 297.561,131.420 298.000,131.200 298.000 C 130.980 298.000,130.800 298.709,130.800 299.576 C 130.800 300.443,130.620 301.264,130.400 301.400 C 130.180 301.536,130.000 302.179,130.000 302.829 C 130.000 303.479,129.782 304.360,129.515 304.787 C 128.650 306.173,129.244 306.199,164.833 306.306 L 200.000 306.413 200.000 274.994 C 200.000 250.221,199.894 243.537,199.500 243.396 C 198.861 243.168,164.788 242.944,164.566 243.167 M235.765 250.000 C 235.765 253.850,235.825 255.425,235.898 253.500 C 235.971 251.575,235.971 248.425,235.898 246.500 C 235.825 244.575,235.765 246.150,235.765 250.000 " stroke="none" fill="#fcdb8b" fill-rule="evenodd"></path></g></svg>