<svg id="svg" version="1.1" xmlns="http://www.w3.org/2000/svg" xmlns:xlink="http://www.w3.org/1999/xlink" width="400" height="400" viewBox="0, 0, 400,400"><g id="svgg"><path id="path0" d="M88.208 306.414 C 88.342 306.630,87.908 306.800,87.224 306.800 C 86.551 306.800,86.000 306.980,86.000 307.200 C 86.000 307.420,85.685 307.600,85.300 307.600 C 84.915 307.601,84.122 308.006,83.537 308.500 C 82.953 308.995,82.098 309.665,81.637 309.988 C 81.177 310.312,80.800 310.817,80.800 311.112 C 80.800 311.427,80.594 311.529,80.300 311.359 C 80.025 311.201,79.928 311.213,80.084 311.387 C 80.240 311.560,80.092 312.236,79.754 312.890 C 79.416 313.543,79.022 314.466,78.880 314.939 C 78.737 315.413,78.566 329.430,78.500 346.090 L 78.381 376.380 79.290 376.599 C 79.791 376.720,107.110 376.770,140.000 376.710 L 199.800 376.600 199.902 341.966 L 200.004 307.332 254.702 307.023 C 284.786 306.853,309.711 306.722,310.092 306.732 C 310.473 306.741,310.861 306.626,310.954 306.475 C 311.048 306.324,301.826 306.290,290.462 306.400 C 247.459 306.816,129.600 306.813,129.600 306.396 C 129.600 306.122,122.708 305.994,108.785 306.007 C 95.508 306.020,88.056 306.167,88.208 306.414 " stroke="none" fill="#bc642c" fill-rule="evenodd"></path><path id="path1" d="M280.300 306.300 C 285.635 306.363,294.365 306.363,299.700 306.300 C 305.035 306.237,300.670 306.185,290.000 306.185 C 279.330 306.185,274.965 306.237,280.300 306.300 M309.769 306.391 C 309.520 306.640,289.438 306.883,254.691 307.057 L 200.004 307.332 199.902 341.966 L 199.800 376.600 139.400 376.521 C 106.180 376.477,77.290 376.355,75.200 376.249 C 72.352 376.105,71.250 376.192,70.800 376.597 C 70.470 376.894,69.698 377.263,69.084 377.416 C 67.844 377.726,64.400 380.955,64.400 381.808 C 64.400 382.108,64.220 382.464,64.000 382.600 C 63.780 382.736,63.600 383.287,63.600 383.824 C 63.600 384.361,63.420 384.800,63.200 384.800 C 62.965 384.800,62.800 386.200,62.800 388.200 C 62.800 390.200,62.965 391.600,63.200 391.600 C 63.420 391.600,63.600 392.140,63.600 392.800 C 63.600 393.460,63.780 394.000,64.000 394.000 C 64.220 394.000,64.400 394.275,64.400 394.611 C 64.400 395.386,67.787 398.800,68.556 398.800 C 68.874 398.800,69.208 399.025,69.300 399.300 C 69.433 399.699,95.929 399.800,200.000 399.800 C 304.071 399.800,330.567 399.699,330.700 399.300 C 330.792 399.025,331.126 398.800,331.444 398.800 C 332.213 398.800,335.600 395.386,335.600 394.611 C 335.600 394.275,335.780 394.000,336.000 394.000 C 336.220 394.000,336.400 393.460,336.400 392.800 C 336.400 392.140,336.580 391.600,336.800 391.600 C 337.035 391.600,337.200 390.200,337.200 388.200 C 337.200 386.200,337.035 384.800,336.800 384.800 C 336.580 384.800,336.400 384.260,336.400 383.600 C 336.400 382.940,336.220 382.400,336.000 382.400 C 335.780 382.400,335.600 382.144,335.600 381.832 C 335.600 381.092,332.108 377.600,331.368 377.600 C 331.056 377.600,330.800 377.420,330.800 377.200 C 330.800 376.980,330.440 376.800,330.000 376.800 C 329.560 376.800,329.200 376.640,329.200 376.444 C 329.200 376.249,328.975 376.097,328.700 376.107 C 328.425 376.118,326.715 376.098,324.900 376.063 L 321.600 376.000 321.600 345.424 C 321.600 325.471,321.461 314.761,321.200 314.600 C 320.980 314.464,320.787 313.958,320.772 313.476 C 320.745 312.631,320.731 312.629,320.400 313.400 C 320.110 314.074,320.052 313.998,320.028 312.920 C 320.011 312.145,319.724 311.479,319.300 311.232 C 318.915 311.008,318.733 310.819,318.896 310.812 C 319.576 310.784,317.756 309.200,317.044 309.200 C 316.617 309.200,316.378 309.089,316.514 308.952 C 316.997 308.470,315.639 307.600,314.405 307.600 C 313.672 307.600,313.255 307.434,313.400 307.200 C 313.536 306.980,313.292 306.800,312.857 306.800 C 312.422 306.800,311.984 306.575,311.883 306.300 C 311.737 305.900,311.594 305.900,311.170 306.300 C 310.538 306.897,309.849 306.968,310.200 306.400 C 310.516 305.889,310.276 305.884,309.769 306.391 M78.400 315.800 C 78.400 316.350,78.469 316.800,78.553 316.800 C 78.638 316.800,78.793 316.350,78.898 315.800 C 79.003 315.250,78.934 314.800,78.745 314.800 C 78.555 314.800,78.400 315.250,78.400 315.800 " stroke="none" fill="#8b4620" fill-rule="evenodd"></path><path id="path2" d="M62.700 0.272 C 61.655 0.366,60.800 0.614,60.800 0.822 C 60.800 1.030,60.260 1.200,59.600 1.200 C 58.940 1.200,58.400 1.380,58.400 1.600 C 58.400 1.820,57.961 2.000,57.424 2.000 C 56.887 2.000,56.336 2.180,56.200 2.400 C 56.064 2.620,55.603 2.800,55.176 2.800 C 54.749 2.800,54.400 2.980,54.400 3.200 C 54.400 3.420,54.040 3.600,53.600 3.600 C 53.160 3.600,52.800 3.780,52.800 4.000 C 52.800 4.220,52.440 4.400,52.000 4.400 C 51.560 4.400,51.200 4.550,51.200 4.732 C 51.200 4.915,50.705 5.315,50.100 5.620 C 48.823 6.265,45.862 8.453,45.667 8.897 C 45.593 9.064,45.345 9.200,45.115 9.200 C 44.666 9.200,38.800 14.997,38.800 15.440 C 38.800 15.586,38.484 15.997,38.097 16.353 C 37.711 16.709,37.140 17.495,36.830 18.100 C 36.519 18.705,36.115 19.200,35.932 19.200 C 35.750 19.200,35.600 19.478,35.600 19.817 C 35.600 20.156,35.240 20.820,34.800 21.292 C 34.360 21.764,34.000 22.387,34.000 22.675 C 34.000 22.964,33.820 23.200,33.600 23.200 C 33.380 23.200,33.200 23.472,33.200 23.805 C 33.200 24.138,32.992 24.813,32.738 25.305 C 31.766 27.184,31.600 27.607,31.600 28.200 C 31.600 28.536,31.442 29.123,31.249 29.505 C 30.582 30.826,30.000 33.062,30.000 34.305 C 30.000 34.991,29.842 35.650,29.649 35.770 C 29.158 36.073,29.072 53.037,29.550 55.216 C 29.765 56.197,29.990 58.260,30.049 59.800 C 30.108 61.340,30.279 62.780,30.431 63.000 C 30.682 63.366,30.829 64.469,31.461 70.700 C 31.578 71.855,31.819 72.800,31.997 72.800 C 32.174 72.800,32.428 73.610,32.560 74.600 C 32.692 75.590,32.908 77.210,33.040 78.200 C 33.172 79.190,33.442 80.000,33.640 80.000 C 33.838 80.000,34.000 80.630,34.000 81.400 C 34.000 82.170,34.180 82.800,34.400 82.800 C 34.620 82.800,34.800 83.419,34.800 84.176 C 34.800 84.933,34.980 85.664,35.200 85.800 C 35.420 85.936,35.600 86.577,35.600 87.224 C 35.600 87.871,35.780 88.400,36.000 88.400 C 36.220 88.400,36.400 88.940,36.400 89.600 C 36.400 90.260,36.580 90.800,36.800 90.800 C 37.020 90.800,37.200 91.160,37.200 91.600 C 37.200 92.040,37.380 92.400,37.600 92.400 C 37.820 92.400,38.000 93.019,38.000 93.776 C 38.000 94.533,38.180 95.264,38.400 95.400 C 38.620 95.536,38.800 95.997,38.800 96.424 C 38.800 96.851,38.980 97.200,39.200 97.200 C 39.420 97.200,39.600 97.479,39.600 97.819 C 39.600 98.160,39.960 99.184,40.400 100.094 C 40.840 101.005,41.200 101.986,41.200 102.275 C 41.200 102.564,41.380 102.800,41.600 102.800 C 41.820 102.800,42.000 103.250,42.000 103.800 C 42.000 104.350,42.180 104.800,42.400 104.800 C 42.620 104.800,42.800 105.087,42.800 105.439 C 42.800 106.001,46.266 113.081,46.796 113.600 C 46.908 113.710,47.374 114.520,47.830 115.400 C 48.906 117.473,49.749 118.949,50.001 119.200 C 50.111 119.310,50.456 119.895,50.768 120.500 C 51.080 121.105,51.485 121.600,51.668 121.600 C 51.850 121.600,52.000 121.870,52.000 122.200 C 52.000 122.530,52.180 122.800,52.400 122.800 C 52.620 122.800,52.800 123.070,52.800 123.400 C 52.800 123.730,52.980 124.000,53.200 124.000 C 53.420 124.000,53.600 124.270,53.600 124.600 C 53.600 124.930,53.750 125.200,53.932 125.200 C 54.115 125.200,54.520 125.695,54.832 126.300 C 55.145 126.905,55.805 127.813,56.300 128.318 C 56.795 128.823,57.200 129.385,57.200 129.568 C 57.200 129.750,57.920 130.687,58.800 131.649 C 59.680 132.612,60.400 133.523,60.400 133.673 C 60.400 133.906,62.516 136.270,65.098 138.921 C 67.683 141.576,74.609 148.000,74.886 148.000 C 75.071 148.000,75.803 148.540,76.511 149.199 C 78.842 151.367,80.698 152.800,81.176 152.800 C 81.435 152.800,81.536 152.980,81.400 153.200 C 81.264 153.420,81.351 153.600,81.593 153.600 C 82.029 153.600,84.081 154.939,85.118 155.900 C 85.414 156.175,86.004 156.400,86.429 156.400 C 86.853 156.400,87.200 156.558,87.200 156.751 C 87.200 156.945,87.740 157.327,88.400 157.600 C 89.060 157.873,89.600 158.255,89.600 158.449 C 89.600 158.642,89.960 158.800,90.400 158.800 C 90.840 158.800,91.200 158.980,91.200 159.200 C 91.200 159.420,91.560 159.600,92.000 159.600 C 92.440 159.600,92.800 159.780,92.800 160.000 C 92.800 160.220,93.160 160.400,93.600 160.400 C 94.040 160.400,94.400 160.580,94.400 160.800 C 94.400 161.020,94.760 161.200,95.200 161.200 C 95.640 161.200,96.000 161.336,96.000 161.502 C 96.000 161.819,97.178 162.373,99.700 163.243 C 100.525 163.528,101.200 163.905,101.200 164.080 C 101.200 164.256,101.661 164.400,102.224 164.400 C 102.804 164.400,103.140 164.573,103.000 164.800 C 102.856 165.033,103.255 165.200,103.953 165.200 C 104.613 165.200,105.264 165.380,105.400 165.600 C 105.536 165.820,106.087 166.000,106.624 166.000 C 107.161 166.000,107.600 166.180,107.600 166.400 C 107.600 166.620,108.140 166.800,108.800 166.800 C 109.460 166.800,110.000 166.980,110.000 167.200 C 110.000 167.420,110.540 167.600,111.200 167.600 C 111.860 167.600,112.400 167.780,112.400 168.000 C 112.400 168.220,112.671 168.400,113.003 168.400 C 113.859 168.400,118.400 173.121,118.400 174.011 C 118.400 174.419,118.580 174.864,118.800 175.000 C 119.020 175.136,119.200 176.857,119.200 178.824 C 119.200 180.941,119.037 182.400,118.800 182.400 C 118.580 182.400,118.400 182.732,118.400 183.138 C 118.400 183.544,118.040 184.202,117.600 184.600 C 117.160 184.998,116.800 185.484,116.800 185.680 C 116.800 186.274,114.879 188.000,114.218 188.000 C 113.878 188.000,113.600 188.180,113.600 188.400 C 113.600 188.620,113.330 188.800,113.000 188.800 C 112.670 188.800,112.400 188.980,112.400 189.200 C 112.400 189.420,111.849 189.600,111.176 189.600 C 110.463 189.600,110.056 189.767,110.200 190.000 C 110.355 190.251,109.479 190.400,107.847 190.400 C 106.417 190.400,105.136 190.220,105.000 190.000 C 104.688 189.494,98.226 189.472,97.295 189.974 C 96.913 190.179,96.028 190.578,95.329 190.859 C 94.630 191.140,94.145 191.512,94.252 191.685 C 94.360 191.858,94.154 192.000,93.795 192.000 C 93.045 192.000,92.000 192.929,92.000 193.595 C 92.000 193.844,91.820 193.936,91.600 193.800 C 91.380 193.664,91.200 193.923,91.200 194.376 C 91.200 194.829,91.020 195.200,90.800 195.200 C 90.580 195.200,90.400 195.470,90.400 195.800 C 90.400 196.130,90.220 196.400,90.000 196.400 C 89.780 196.400,89.600 196.839,89.600 197.376 C 89.600 197.913,89.420 198.464,89.200 198.600 C 88.679 198.922,88.679 204.278,89.200 204.600 C 89.420 204.736,89.600 205.377,89.600 206.024 C 89.600 206.671,89.780 207.200,90.000 207.200 C 90.220 207.200,90.400 207.475,90.400 207.811 C 90.400 209.318,95.891 213.600,97.823 213.600 C 98.360 213.600,98.800 213.748,98.800 213.929 C 98.800 214.109,99.731 214.300,100.869 214.351 C 102.007 214.403,103.255 214.616,103.643 214.823 C 104.585 215.327,111.486 215.307,111.800 214.800 C 111.936 214.580,113.117 214.400,114.424 214.400 C 115.741 214.400,116.800 214.222,116.800 214.000 C 116.800 213.780,117.239 213.600,117.776 213.600 C 118.313 213.600,118.864 213.420,119.000 213.200 C 119.136 212.980,119.687 212.800,120.224 212.800 C 120.761 212.800,121.200 212.620,121.200 212.400 C 121.200 212.180,121.550 212.000,121.977 212.000 C 122.784 212.000,125.700 210.462,125.933 209.913 C 126.007 209.741,126.412 209.600,126.833 209.600 C 127.255 209.600,127.600 209.450,127.600 209.268 C 127.600 209.085,128.094 208.680,128.698 208.368 C 129.989 207.701,130.419 207.333,134.461 203.432 C 136.144 201.807,137.641 200.100,137.788 199.639 C 137.934 199.178,138.252 198.800,138.494 198.800 C 138.735 198.800,138.819 198.686,138.680 198.546 C 138.540 198.407,138.780 197.843,139.213 197.292 C 139.646 196.742,140.000 195.956,140.000 195.546 C 140.000 195.136,140.192 194.800,140.427 194.800 C 141.758 194.800,140.181 192.444,135.918 188.064 C 124.762 176.601,116.913 162.711,113.368 148.157 C 112.090 142.908,111.412 141.200,110.606 141.200 C 110.273 141.200,110.000 141.020,110.000 140.800 C 110.000 140.580,109.651 140.400,109.224 140.400 C 108.797 140.400,108.336 140.220,108.200 140.000 C 108.064 139.780,107.603 139.600,107.176 139.600 C 106.749 139.600,106.400 139.420,106.400 139.200 C 106.400 138.980,106.130 138.800,105.800 138.800 C 105.470 138.800,105.200 138.620,105.200 138.400 C 105.200 138.180,104.855 138.000,104.433 138.000 C 104.012 138.000,103.607 137.865,103.533 137.700 C 103.460 137.535,102.561 136.979,101.537 136.464 C 100.512 135.949,99.304 135.184,98.853 134.764 C 98.402 134.344,97.846 134.000,97.617 134.000 C 97.388 134.000,97.200 133.820,97.200 133.600 C 97.200 133.380,96.949 133.200,96.642 133.200 C 96.336 133.200,95.517 132.669,94.823 132.021 C 94.128 131.373,93.463 130.852,93.343 130.864 C 93.065 130.893,89.530 127.898,87.249 125.700 C 86.278 124.765,85.407 124.000,85.313 124.000 C 85.020 124.000,84.001 122.873,83.983 122.529 C 83.974 122.348,83.434 121.758,82.783 121.219 C 82.132 120.679,81.600 120.108,81.600 119.950 C 81.600 119.792,80.835 118.874,79.900 117.909 C 77.946 115.892,76.800 114.500,76.800 114.142 C 76.800 114.006,76.466 113.603,76.057 113.247 C 75.649 112.891,75.201 112.240,75.062 111.800 C 74.923 111.360,74.367 110.524,73.828 109.943 C 73.289 109.362,72.957 108.777,73.090 108.643 C 73.224 108.509,73.123 108.400,72.867 108.400 C 72.610 108.400,72.400 108.164,72.400 107.875 C 72.400 107.587,72.040 106.964,71.600 106.492 C 71.160 106.020,70.800 105.356,70.800 105.017 C 70.800 104.678,70.620 104.400,70.400 104.400 C 70.180 104.400,70.000 104.145,70.000 103.833 C 70.000 103.522,69.863 103.207,69.696 103.133 C 69.355 102.983,65.992 96.382,65.997 95.871 C 65.999 95.691,65.721 95.264,65.380 94.923 C 65.040 94.582,64.657 93.785,64.530 93.152 C 64.404 92.518,64.142 92.000,63.950 92.000 C 63.758 92.000,63.600 91.640,63.600 91.200 C 63.600 90.760,63.420 90.400,63.200 90.400 C 62.980 90.400,62.800 89.860,62.800 89.200 C 62.800 88.540,62.653 88.000,62.472 88.000 C 62.292 88.000,61.896 87.089,61.593 85.975 C 61.290 84.861,60.897 83.860,60.721 83.751 C 60.544 83.642,60.400 83.113,60.400 82.576 C 60.400 82.039,60.220 81.600,60.000 81.600 C 59.780 81.600,59.600 81.060,59.600 80.400 C 59.600 79.740,59.420 79.200,59.200 79.200 C 58.980 79.200,58.800 78.733,58.800 78.162 C 58.800 77.590,58.495 76.105,58.122 74.862 C 57.748 73.618,57.488 72.436,57.543 72.235 C 57.598 72.034,57.474 71.404,57.268 70.835 C 56.833 69.637,55.998 65.192,55.855 63.311 C 55.800 62.603,55.631 61.898,55.478 61.745 C 55.325 61.592,55.200 60.357,55.200 59.000 C 55.200 57.643,55.075 56.408,54.922 56.255 C 54.233 55.567,54.090 37.903,54.770 37.677 C 55.007 37.598,55.200 37.224,55.200 36.845 C 55.200 34.593,61.288 26.800,63.046 26.800 C 63.351 26.800,63.600 26.620,63.600 26.400 C 63.600 26.180,63.960 26.000,64.400 26.000 C 64.840 26.000,65.200 25.840,65.200 25.645 C 65.200 25.450,65.785 25.184,66.500 25.053 C 67.215 24.922,68.430 24.698,69.200 24.556 C 72.385 23.966,80.305 24.782,79.772 25.645 C 79.652 25.840,79.931 26.000,80.393 26.000 C 80.855 26.000,81.620 26.360,82.092 26.800 C 82.564 27.240,83.198 27.600,83.499 27.600 C 83.801 27.600,83.936 27.780,83.800 28.000 C 83.664 28.220,83.790 28.400,84.079 28.400 C 84.666 28.400,87.200 31.009,87.200 31.613 C 87.200 31.826,87.380 32.000,87.600 32.000 C 87.820 32.000,88.000 32.270,88.000 32.600 C 88.000 32.930,88.180 33.200,88.400 33.200 C 88.620 33.200,88.800 33.560,88.800 34.000 C 88.800 34.440,88.980 34.800,89.200 34.800 C 89.420 34.800,89.600 35.149,89.600 35.576 C 89.600 36.003,89.780 36.464,90.000 36.600 C 90.220 36.736,90.400 37.377,90.400 38.024 C 90.400 38.671,90.580 39.200,90.800 39.200 C 91.029 39.200,91.200 40.402,91.200 42.006 C 91.200 44.761,91.901 48.000,92.497 48.000 C 92.664 48.000,92.800 48.289,92.800 48.642 C 92.800 50.187,96.358 53.361,99.292 54.434 C 101.530 55.252,106.177 55.485,106.600 54.800 C 106.736 54.580,107.287 54.400,107.824 54.400 C 108.361 54.400,108.800 54.220,108.800 54.000 C 108.800 53.780,109.049 53.600,109.353 53.600 C 110.301 53.600,110.389 52.209,110.388 37.200 C 110.388 25.712,110.267 22.216,109.821 20.800 C 109.509 19.810,109.240 19.180,109.223 19.400 C 109.206 19.620,108.707 18.990,108.114 18.000 C 107.078 16.269,105.528 14.352,103.767 12.619 C 101.026 9.924,98.296 7.600,97.870 7.600 C 97.598 7.600,97.117 7.240,96.800 6.800 C 96.483 6.360,95.986 6.000,95.695 6.000 C 95.404 6.000,94.780 5.640,94.308 5.200 C 93.836 4.760,93.213 4.400,92.925 4.400 C 92.636 4.400,92.400 4.220,92.400 4.000 C 92.400 3.780,91.939 3.600,91.376 3.600 C 90.796 3.600,90.460 3.427,90.600 3.200 C 90.740 2.973,90.404 2.800,89.824 2.800 C 89.261 2.800,88.800 2.620,88.800 2.400 C 88.800 2.180,88.498 2.000,88.128 2.000 C 87.307 2.000,84.887 1.257,83.800 0.670 C 82.996 0.237,66.521 -0.075,62.700 0.272 M199.903 28.089 L 199.800 56.200 196.909 56.458 C 189.527 57.118,181.194 61.391,176.921 66.707 C 176.084 67.748,175.203 68.809,174.962 69.066 C 173.843 70.260,171.143 76.195,170.350 79.206 C 166.020 95.652,188.373 101.246,193.214 84.927 C 194.003 82.267,198.608 78.742,199.773 79.906 C 199.898 80.031,200.000 84.523,200.000 89.889 L 200.000 99.644 198.414 101.922 C 197.541 103.175,196.079 105.280,195.164 106.600 C 194.250 107.920,192.567 110.260,191.424 111.800 C 190.282 113.340,188.374 115.950,187.184 117.600 C 185.994 119.250,184.921 120.690,184.800 120.800 C 184.194 121.349,176.281 132.133,174.846 134.365 C 169.803 142.206,172.618 150.441,181.400 153.541 C 182.351 153.877,190.998 154.295,198.900 154.387 L 200.000 154.400 200.000 186.983 L 200.000 219.567 183.300 219.760 C 165.423 219.967,164.352 220.015,162.771 220.688 C 161.367 221.286,158.400 224.192,158.400 224.969 C 158.400 225.316,158.220 225.600,158.000 225.600 C 157.780 225.600,157.600 225.960,157.600 226.400 C 157.600 226.840,157.420 227.200,157.200 227.200 C 156.606 227.200,156.692 235.209,157.300 236.517 C 157.575 237.109,157.935 237.595,158.100 237.597 C 158.265 237.599,158.400 237.891,158.400 238.246 C 158.400 238.993,161.103 241.600,161.878 241.600 C 162.165 241.600,162.401 241.735,162.403 241.900 C 162.414 242.968,164.996 243.138,181.908 243.183 C 191.523 243.209,199.528 243.368,199.698 243.538 C 199.867 243.707,199.959 257.875,199.902 275.022 L 199.800 306.200 164.738 306.200 C 145.454 306.200,129.760 306.335,129.862 306.500 C 130.153 306.972,199.908 306.873,200.200 306.400 C 200.362 306.138,212.523 306.000,235.381 306.000 C 271.345 306.000,271.779 305.982,270.402 304.549 C 270.218 304.357,270.017 303.570,269.955 302.800 C 269.892 302.030,269.686 301.187,269.495 300.928 C 269.304 300.668,269.132 299.903,269.113 299.228 C 269.094 298.552,268.926 298.000,268.739 298.000 C 268.553 298.000,268.400 297.561,268.400 297.024 C 268.400 296.487,268.220 295.936,268.000 295.800 C 267.780 295.664,267.600 295.113,267.600 294.576 C 267.600 294.039,267.420 293.600,267.200 293.600 C 266.980 293.600,266.800 293.161,266.800 292.624 C 266.800 292.087,266.620 291.536,266.400 291.400 C 266.180 291.264,266.000 290.803,266.000 290.376 C 266.000 289.949,265.854 289.600,265.675 289.600 C 265.496 289.600,265.102 288.970,264.800 288.200 C 264.498 287.430,264.104 286.800,263.925 286.800 C 263.746 286.800,263.600 286.365,263.600 285.833 C 263.600 285.302,263.434 284.807,263.230 284.733 C 263.027 284.660,262.802 284.334,262.730 284.010 C 262.659 283.685,262.373 283.175,262.096 282.877 C 261.819 282.579,261.712 282.142,261.858 281.906 C 262.015 281.651,261.936 281.593,261.662 281.762 C 261.388 281.931,261.200 281.793,261.200 281.424 C 261.200 281.081,261.020 280.800,260.800 280.800 C 260.580 280.800,260.400 280.468,260.400 280.061 C 260.400 279.655,259.995 279.127,259.500 278.888 C 259.005 278.649,258.832 278.442,259.116 278.427 C 259.487 278.408,259.513 278.260,259.208 277.900 C 257.739 276.164,257.200 275.449,257.200 275.235 C 257.200 275.101,256.790 274.544,256.289 273.996 C 255.787 273.448,254.964 272.413,254.458 271.695 C 253.952 270.978,253.345 270.511,253.108 270.657 C 252.870 270.804,252.788 270.743,252.924 270.523 C 253.140 270.173,249.519 266.000,248.999 266.000 C 248.889 266.000,248.477 265.685,248.082 265.300 C 247.004 264.249,244.080 261.936,243.845 261.948 C 243.732 261.953,243.072 261.427,242.377 260.779 C 241.683 260.131,240.859 259.600,240.545 259.600 C 240.232 259.600,239.871 259.330,239.745 259.000 C 239.618 258.670,239.264 258.400,238.957 258.400 C 238.651 258.400,238.400 258.220,238.400 258.000 C 238.400 257.780,238.130 257.600,237.800 257.600 C 237.470 257.600,237.200 257.420,237.200 257.200 C 237.200 256.980,236.844 256.800,236.409 256.800 C 235.657 256.800,235.614 256.469,235.509 249.975 L 235.400 243.151 217.694 243.187 L 199.988 243.223 200.094 231.512 L 200.200 219.800 216.400 219.800 C 225.310 219.800,233.275 219.955,234.100 220.145 L 235.600 220.489 235.600 214.687 C 235.600 208.748,235.644 208.569,237.200 208.225 C 237.846 208.082,242.288 205.742,242.732 205.310 C 243.025 205.025,243.430 204.895,243.632 205.020 C 243.835 205.145,244.000 205.057,244.000 204.824 C 244.000 204.591,244.270 204.400,244.600 204.400 C 244.930 204.400,245.200 204.220,245.200 204.000 C 245.200 203.780,245.470 203.600,245.800 203.600 C 246.130 203.600,246.400 203.420,246.400 203.200 C 246.400 202.980,246.771 202.800,247.224 202.800 C 247.677 202.800,247.936 202.620,247.800 202.400 C 247.662 202.177,247.964 202.000,248.480 202.000 C 248.990 202.000,249.632 201.640,249.907 201.200 C 250.182 200.760,250.675 200.400,251.003 200.400 C 251.332 200.400,251.600 200.220,251.600 200.000 C 251.600 199.780,251.830 199.600,252.112 199.600 C 252.393 199.600,252.883 199.240,253.200 198.800 C 253.517 198.360,254.015 198.000,254.306 198.000 C 254.970 198.000,256.838 196.171,256.509 195.842 C 256.376 195.709,256.614 195.600,257.038 195.600 C 257.463 195.600,258.166 195.105,258.600 194.500 C 259.035 193.895,261.373 191.329,263.795 188.797 C 272.694 179.498,278.187 171.381,282.606 161.000 C 282.981 160.120,283.538 158.877,283.844 158.239 C 284.150 157.600,284.400 156.755,284.400 156.362 C 284.400 155.969,284.559 155.549,284.752 155.430 C 284.946 155.310,285.203 154.804,285.324 154.306 C 285.531 153.456,285.772 152.590,286.830 148.900 C 287.067 148.075,287.413 146.680,287.600 145.800 C 288.278 142.607,288.750 141.078,289.131 140.841 C 289.345 140.709,289.594 139.520,289.684 138.200 C 289.774 136.880,290.003 135.455,290.192 135.034 C 290.463 134.430,290.416 134.341,289.968 134.611 C 289.489 134.900,289.483 134.851,289.932 134.297 C 290.539 133.548,290.484 8.400,289.876 8.400 C 289.698 8.400,289.648 8.247,289.764 8.059 C 289.880 7.871,289.716 7.376,289.400 6.959 C 289.084 6.542,288.820 5.880,288.813 5.489 C 288.797 4.634,285.460 1.200,284.644 1.200 C 284.326 1.200,283.992 0.975,283.900 0.700 C 283.769 0.305,274.926 0.177,241.869 0.089 L 200.005 -0.021 199.903 28.089 M208.800 57.588 C 223.588 62.394,232.565 76.896,229.795 91.503 C 228.286 99.453,224.765 105.823,212.274 123.200 L 207.242 130.200 215.521 130.443 C 224.477 130.707,225.445 130.851,227.674 132.251 C 235.427 137.122,235.234 148.717,227.336 152.544 C 226.491 152.954,225.529 153.423,225.198 153.586 C 224.867 153.750,219.107 153.955,212.398 154.042 L 200.200 154.200 200.200 126.762 L 200.200 99.324 202.034 96.562 C 208.396 86.982,208.011 82.158,200.700 79.846 C 200.054 79.642,200.000 78.718,200.000 67.955 L 200.000 56.286 203.100 56.514 C 204.805 56.640,207.370 57.123,208.800 57.588 " stroke="none" fill="#c4cbf3" fill-rule="evenodd"></path><path id="path3" d="M317.800 0.274 C 316.920 0.373,316.029 0.621,315.820 0.827 C 315.611 1.032,314.936 1.200,314.320 1.200 C 313.704 1.200,313.200 1.380,313.200 1.600 C 313.200 1.820,312.750 2.000,312.200 2.000 C 311.650 2.000,311.200 2.180,311.200 2.400 C 311.200 2.620,310.750 2.800,310.200 2.800 C 309.650 2.800,309.200 2.980,309.200 3.200 C 309.200 3.420,308.840 3.600,308.400 3.600 C 307.960 3.600,307.600 3.780,307.600 4.000 C 307.600 4.220,307.280 4.400,306.888 4.400 C 306.497 4.400,305.917 4.760,305.600 5.200 C 305.283 5.640,304.703 6.000,304.312 6.000 C 303.920 6.000,303.600 6.180,303.600 6.400 C 303.600 6.620,303.375 6.802,303.100 6.805 C 301.767 6.818,292.449 15.939,292.075 17.595 C 292.006 17.900,291.556 18.491,291.075 18.908 C 290.201 19.666,290.200 19.684,290.200 36.472 L 290.200 53.278 291.911 54.239 C 293.259 54.997,294.208 55.200,296.392 55.200 C 298.977 55.200,299.843 55.005,302.394 53.850 C 304.464 52.913,307.600 49.768,307.600 48.630 C 307.600 48.320,307.808 47.997,308.062 47.913 C 308.357 47.814,308.593 46.206,308.715 43.479 C 308.819 41.126,309.061 39.200,309.252 39.200 C 309.444 39.200,309.600 38.660,309.600 38.000 C 309.600 37.340,309.780 36.800,310.000 36.800 C 310.220 36.800,310.400 36.350,310.400 35.800 C 310.400 35.250,310.580 34.800,310.800 34.800 C 311.020 34.800,311.200 34.480,311.200 34.088 C 311.200 33.697,311.560 33.117,312.000 32.800 C 312.440 32.483,312.800 32.015,312.800 31.760 C 312.800 31.203,315.842 28.000,316.371 28.000 C 316.576 28.000,316.981 27.775,317.271 27.500 C 319.561 25.334,325.606 23.881,329.600 24.535 C 330.150 24.625,331.545 24.835,332.700 25.001 C 333.855 25.167,334.800 25.460,334.800 25.652 C 334.800 25.843,335.160 26.000,335.600 26.000 C 336.040 26.000,336.400 26.150,336.400 26.332 C 336.400 26.515,336.895 26.920,337.500 27.232 C 338.774 27.890,342.800 31.908,342.800 32.522 C 342.800 32.750,343.048 33.221,343.351 33.569 C 346.386 37.047,346.307 53.815,343.185 68.600 C 342.953 69.700,342.684 71.050,342.588 71.600 C 342.491 72.150,342.217 73.410,341.977 74.400 C 341.738 75.390,341.446 76.785,341.327 77.500 C 341.209 78.215,340.952 78.800,340.756 78.800 C 340.560 78.800,340.400 79.329,340.400 79.976 C 340.400 80.623,340.220 81.264,340.000 81.400 C 339.780 81.536,339.600 81.999,339.600 82.429 C 339.600 82.859,339.420 83.568,339.200 84.005 C 338.980 84.442,338.620 85.158,338.400 85.595 C 338.180 86.032,338.000 86.752,338.000 87.195 C 338.000 87.638,337.853 88.000,337.672 88.000 C 337.492 88.000,337.100 88.900,336.800 90.000 C 336.500 91.100,336.108 92.000,335.928 92.000 C 335.747 92.000,335.600 92.360,335.600 92.800 C 335.600 93.240,335.420 93.600,335.200 93.600 C 334.980 93.600,334.800 93.853,334.800 94.162 C 334.800 94.685,333.254 97.953,332.795 98.400 C 332.682 98.510,332.142 99.500,331.595 100.600 C 331.048 101.700,330.465 102.660,330.300 102.733 C 330.135 102.807,330.000 103.197,330.000 103.600 C 330.000 104.003,329.858 104.393,329.685 104.467 C 329.512 104.540,328.882 105.442,328.285 106.472 C 327.688 107.501,326.975 108.584,326.700 108.878 C 326.425 109.172,325.857 110.084,325.437 110.906 C 325.017 111.728,324.522 112.400,324.337 112.400 C 324.152 112.400,324.000 112.604,324.000 112.853 C 324.000 113.102,323.676 113.597,323.281 113.953 C 322.886 114.309,322.123 115.230,321.586 116.000 C 321.049 116.770,319.707 118.329,318.605 119.464 C 317.502 120.599,315.936 122.264,315.124 123.164 C 314.312 124.064,313.571 124.800,313.476 124.800 C 313.382 124.800,312.336 125.752,311.152 126.916 C 309.969 128.080,308.370 129.466,307.600 129.997 C 306.830 130.528,305.930 131.242,305.600 131.584 C 305.270 131.926,304.505 132.460,303.900 132.770 C 303.295 133.081,302.800 133.485,302.800 133.668 C 302.800 133.850,302.564 134.000,302.275 134.000 C 301.987 134.000,301.364 134.360,300.892 134.800 C 300.420 135.240,299.838 135.600,299.600 135.600 C 299.362 135.600,298.780 135.960,298.308 136.400 C 297.836 136.840,297.213 137.200,296.925 137.200 C 296.636 137.200,296.400 137.380,296.400 137.600 C 296.400 137.820,296.040 138.000,295.600 138.000 C 295.160 138.000,294.800 138.146,294.800 138.325 C 294.800 138.504,294.170 138.898,293.400 139.200 C 292.630 139.502,292.000 139.896,292.000 140.075 C 292.000 140.254,291.488 140.400,290.862 140.400 C 290.236 140.400,289.450 140.715,289.114 141.100 C 288.530 141.771,288.393 142.199,287.609 145.800 C 287.417 146.680,287.077 148.030,286.853 148.800 C 286.151 151.212,285.553 153.365,285.324 154.306 C 285.203 154.804,284.946 155.310,284.752 155.430 C 284.559 155.549,284.400 155.969,284.400 156.362 C 284.400 156.755,284.150 157.600,283.844 158.239 C 283.538 158.877,282.981 160.120,282.606 161.000 C 278.146 171.477,272.607 179.636,263.700 188.849 C 259.469 193.225,258.773 194.239,259.500 194.967 C 259.665 195.132,259.812 195.387,259.826 195.533 C 259.889 196.168,261.378 198.800,261.674 198.800 C 261.853 198.800,262.000 199.080,262.000 199.423 C 262.000 200.287,270.245 208.346,271.434 208.644 C 271.965 208.778,272.400 209.047,272.400 209.243 C 272.400 209.440,272.720 209.600,273.112 209.600 C 273.503 209.600,274.083 209.960,274.400 210.400 C 274.717 210.840,275.297 211.200,275.688 211.200 C 276.080 211.200,276.400 211.380,276.400 211.600 C 276.400 211.820,276.850 212.000,277.400 212.000 C 277.950 212.000,278.400 212.180,278.400 212.400 C 278.400 212.620,278.850 212.800,279.400 212.800 C 279.950 212.800,280.400 212.980,280.400 213.200 C 280.400 213.420,281.030 213.600,281.800 213.600 C 282.570 213.600,283.200 213.780,283.200 214.000 C 283.200 214.222,284.267 214.400,285.600 214.400 C 286.933 214.400,288.000 214.578,288.000 214.800 C 288.000 215.042,289.725 215.200,292.376 215.200 C 294.863 215.200,296.860 215.027,297.000 214.800 C 297.136 214.580,298.137 214.400,299.224 214.400 C 300.311 214.400,301.200 214.220,301.200 214.000 C 301.200 213.780,301.619 213.600,302.132 213.600 C 303.252 213.600,306.892 211.826,306.525 211.459 C 306.383 211.316,306.527 211.200,306.845 211.200 C 307.163 211.200,307.688 210.818,308.012 210.351 C 308.335 209.884,308.780 209.292,309.000 209.036 C 309.784 208.121,310.400 206.799,310.400 206.029 C 310.400 205.599,310.580 205.136,310.800 205.000 C 311.020 204.864,311.200 203.323,311.200 201.576 C 311.200 199.725,311.033 198.400,310.800 198.400 C 310.580 198.400,310.400 197.860,310.400 197.200 C 310.400 196.540,310.220 196.000,310.000 196.000 C 309.780 196.000,309.600 195.730,309.600 195.400 C 309.600 195.070,309.420 194.800,309.200 194.800 C 308.980 194.800,308.800 194.612,308.800 194.382 C 308.800 193.839,306.961 192.000,306.418 192.000 C 306.188 192.000,306.000 191.820,306.000 191.600 C 306.000 191.380,305.730 191.200,305.400 191.200 C 305.070 191.200,304.800 191.020,304.800 190.800 C 304.800 190.580,304.350 190.400,303.800 190.400 C 303.250 190.400,302.800 190.220,302.800 190.000 C 302.800 189.469,294.928 189.469,294.600 190.000 C 294.277 190.522,290.000 190.522,290.000 190.000 C 290.000 189.780,289.676 189.600,289.280 189.600 C 288.386 189.600,286.407 188.706,286.403 188.300 C 286.401 188.135,286.130 188.000,285.800 188.000 C 285.470 188.000,285.200 187.820,285.200 187.600 C 285.200 187.380,284.972 187.200,284.694 187.200 C 284.416 187.200,283.744 186.480,283.200 185.600 C 282.656 184.720,282.074 184.000,281.906 184.000 C 281.738 184.000,281.600 183.561,281.600 183.024 C 281.600 182.487,281.420 181.936,281.200 181.800 C 280.980 181.664,280.800 180.123,280.800 178.376 C 280.800 176.525,280.967 175.200,281.200 175.200 C 281.420 175.200,281.600 174.840,281.600 174.400 C 281.600 173.960,281.780 173.600,282.000 173.600 C 282.220 173.600,282.400 173.352,282.400 173.048 C 282.400 172.410,285.403 169.200,286.000 169.200 C 286.220 169.200,286.400 169.020,286.400 168.800 C 286.400 168.580,286.760 168.400,287.200 168.400 C 287.640 168.400,288.000 168.220,288.000 168.000 C 288.000 167.780,288.450 167.600,289.000 167.600 C 289.550 167.600,290.000 167.420,290.000 167.200 C 290.000 166.980,290.540 166.800,291.200 166.800 C 291.860 166.800,292.400 166.620,292.400 166.400 C 292.400 166.180,292.940 166.000,293.600 166.000 C 294.260 166.000,294.800 165.820,294.800 165.600 C 294.800 165.380,295.340 165.200,296.000 165.200 C 296.660 165.200,297.200 165.020,297.200 164.800 C 297.200 164.580,297.472 164.400,297.805 164.400 C 298.138 164.400,298.768 164.220,299.205 164.000 C 299.642 163.780,300.358 163.420,300.795 163.200 C 301.232 162.980,301.862 162.800,302.195 162.800 C 302.528 162.800,302.800 162.620,302.800 162.400 C 302.800 162.180,303.160 162.000,303.600 162.000 C 304.040 162.000,304.400 161.820,304.400 161.600 C 304.400 161.380,304.760 161.200,305.200 161.200 C 305.640 161.200,306.000 161.054,306.000 160.875 C 306.000 160.696,306.630 160.302,307.400 160.000 C 308.170 159.698,308.800 159.304,308.800 159.125 C 308.800 158.946,309.115 158.799,309.500 158.797 C 309.885 158.796,310.740 158.430,311.400 157.985 C 312.060 157.539,313.185 156.890,313.900 156.542 C 314.615 156.194,315.200 155.771,315.200 155.603 C 315.200 155.435,315.740 155.073,316.400 154.800 C 317.060 154.527,317.600 154.145,317.600 153.951 C 317.600 153.758,317.836 153.600,318.125 153.600 C 318.413 153.600,319.004 153.285,319.438 152.900 C 319.873 152.515,321.032 151.572,322.014 150.806 C 325.024 148.455,325.197 148.303,328.836 144.800 C 330.778 142.930,333.590 140.229,335.084 138.798 C 337.759 136.235,339.023 134.824,340.600 132.642 C 341.040 132.033,341.805 131.055,342.300 130.468 C 342.794 129.880,343.199 129.263,343.200 129.096 C 343.200 128.929,343.740 128.228,344.400 127.537 C 345.060 126.846,345.600 126.038,345.600 125.741 C 345.600 125.443,345.738 125.200,345.906 125.200 C 346.074 125.200,346.656 124.480,347.200 123.600 C 347.744 122.720,348.326 122.000,348.494 122.000 C 348.662 122.000,348.800 121.745,348.800 121.433 C 348.800 121.122,348.935 120.807,349.100 120.733 C 349.476 120.566,350.775 118.436,351.071 117.500 C 351.193 117.115,351.452 116.800,351.647 116.800 C 351.841 116.800,352.000 116.440,352.000 116.000 C 352.000 115.560,352.137 115.200,352.304 115.200 C 352.472 115.200,353.237 113.985,354.004 112.500 C 354.772 111.015,355.535 109.740,355.700 109.667 C 355.865 109.593,356.000 109.323,356.000 109.065 C 356.000 108.808,356.630 107.299,357.400 105.711 C 358.170 104.124,358.800 102.460,358.800 102.013 C 358.800 101.566,358.980 101.200,359.200 101.200 C 359.420 101.200,359.600 100.840,359.600 100.400 C 359.600 99.960,359.780 99.600,360.000 99.600 C 360.220 99.600,360.400 99.060,360.400 98.400 C 360.400 97.740,360.580 97.200,360.800 97.200 C 361.020 97.200,361.200 96.840,361.200 96.400 C 361.200 95.960,361.380 95.600,361.600 95.600 C 361.820 95.600,362.000 95.060,362.000 94.400 C 362.000 93.740,362.180 93.200,362.400 93.200 C 362.620 93.200,362.800 92.660,362.800 92.000 C 362.800 91.340,362.980 90.800,363.200 90.800 C 363.420 90.800,363.600 90.260,363.600 89.600 C 363.600 88.940,363.780 88.400,364.000 88.400 C 364.220 88.400,364.400 87.871,364.400 87.224 C 364.400 86.577,364.580 85.936,364.800 85.800 C 365.020 85.664,365.200 85.023,365.200 84.376 C 365.200 83.729,365.380 83.200,365.600 83.200 C 365.820 83.200,366.000 82.480,366.000 81.600 C 366.000 80.720,366.180 80.000,366.400 80.000 C 366.620 80.000,366.800 79.291,366.800 78.424 C 366.800 77.557,366.980 76.736,367.200 76.600 C 367.420 76.464,367.600 75.654,367.600 74.800 C 367.600 73.946,367.780 73.136,368.000 73.000 C 368.220 72.864,368.400 71.874,368.400 70.800 C 368.400 69.726,368.580 68.736,368.800 68.600 C 369.020 68.464,369.200 67.294,369.200 66.000 C 369.200 64.706,369.380 63.536,369.600 63.400 C 369.820 63.264,370.000 61.644,370.000 59.800 C 370.000 57.956,370.180 56.336,370.400 56.200 C 370.650 56.046,370.800 52.137,370.800 45.800 C 370.800 39.463,370.650 35.554,370.400 35.400 C 370.180 35.264,370.000 34.454,370.000 33.600 C 370.000 32.746,369.820 31.936,369.600 31.800 C 369.380 31.664,369.200 30.933,369.200 30.176 C 369.200 29.419,369.053 28.800,368.872 28.800 C 368.692 28.800,368.300 27.900,368.000 26.800 C 367.700 25.700,367.308 24.800,367.128 24.800 C 366.947 24.800,366.800 24.440,366.800 24.000 C 366.800 23.560,366.620 23.200,366.400 23.200 C 366.180 23.200,366.000 22.840,366.000 22.400 C 366.000 21.960,365.820 21.600,365.600 21.600 C 365.380 21.600,365.200 21.280,365.200 20.888 C 365.200 20.497,364.840 19.917,364.400 19.600 C 363.960 19.283,363.600 18.791,363.600 18.508 C 363.600 18.225,363.060 17.428,362.400 16.737 C 361.740 16.046,361.200 15.303,361.200 15.084 C 361.200 14.559,354.854 8.400,354.313 8.400 C 354.083 8.400,353.603 8.084,353.247 7.697 C 352.891 7.311,352.105 6.740,351.500 6.430 C 350.895 6.119,350.400 5.715,350.400 5.532 C 350.400 5.350,350.040 5.200,349.600 5.200 C 349.160 5.200,348.800 5.020,348.800 4.800 C 348.800 4.580,348.440 4.400,348.000 4.400 C 347.560 4.400,347.200 4.220,347.200 4.000 C 347.200 3.780,346.840 3.600,346.400 3.600 C 345.960 3.600,345.600 3.420,345.600 3.200 C 345.600 2.980,345.240 2.800,344.800 2.800 C 344.360 2.800,344.000 2.620,344.000 2.400 C 344.000 2.180,343.460 2.000,342.800 2.000 C 342.140 2.000,341.600 1.820,341.600 1.600 C 341.600 1.380,341.096 1.200,340.480 1.200 C 339.864 1.200,339.135 0.975,338.860 0.700 C 338.358 0.198,321.513 -0.143,317.800 0.274 M200.000 67.955 C 200.000 78.718,200.054 79.642,200.700 79.846 C 208.011 82.158,208.396 86.982,202.034 96.562 L 200.200 99.324 200.200 126.762 L 200.200 154.200 212.398 154.042 C 219.107 153.955,224.867 153.750,225.198 153.586 C 225.529 153.423,226.491 152.954,227.336 152.544 C 235.234 148.717,235.427 137.122,227.674 132.251 C 225.445 130.851,224.477 130.707,215.521 130.443 L 207.242 130.200 212.274 123.200 C 224.765 105.823,228.286 99.453,229.795 91.503 C 232.973 74.750,220.010 57.760,203.100 56.514 L 200.000 56.286 200.000 67.955 M200.283 219.850 C 200.127 220.006,200.000 225.328,200.000 231.677 L 200.000 243.220 218.200 243.188 C 228.210 243.170,236.400 243.022,236.400 242.860 C 236.400 242.697,237.190 242.238,238.156 241.840 C 239.793 241.165,241.600 239.369,241.600 238.416 C 241.600 238.187,241.780 238.000,242.000 238.000 C 242.220 238.000,242.400 237.550,242.400 237.000 C 242.400 236.450,242.580 236.000,242.800 236.000 C 243.394 236.000,243.308 227.991,242.700 226.683 C 242.425 226.091,242.065 225.605,241.900 225.603 C 241.735 225.601,241.600 225.267,241.600 224.859 C 241.600 224.076,239.470 221.600,238.797 221.600 C 238.578 221.600,238.400 221.420,238.400 221.200 C 238.400 220.980,238.130 220.800,237.800 220.800 C 237.470 220.800,237.200 220.628,237.200 220.419 C 237.200 220.209,236.435 220.022,235.500 220.003 C 221.601 219.724,200.501 219.632,200.283 219.850 M200.200 306.400 C 199.866 306.941,269.163 306.941,270.000 306.400 C 270.390 306.148,258.317 306.010,235.524 306.006 C 212.564 306.002,200.362 306.138,200.200 306.400 " stroke="none" fill="#acb4ec" fill-rule="evenodd"></path><path id="path4" d="M117.200 0.261 C 115.074 0.961,113.437 2.266,112.000 4.405 C 111.670 4.896,111.175 5.533,110.900 5.820 C 110.625 6.108,110.400 6.590,110.400 6.891 C 110.400 7.193,110.208 7.632,109.972 7.868 C 109.682 8.158,109.626 10.466,109.798 15.048 C 110.070 22.319,110.073 30.814,109.822 94.394 C 109.730 117.633,109.812 135.973,110.008 136.209 C 110.200 136.440,110.411 137.523,110.477 138.615 C 110.551 139.841,110.942 141.118,111.499 141.956 C 111.994 142.702,112.400 143.647,112.400 144.058 C 112.400 145.327,114.397 152.407,115.881 156.400 C 120.424 168.625,126.787 178.681,135.918 188.065 C 140.403 192.675,141.309 193.839,140.926 194.500 C 140.831 194.665,140.953 194.800,141.198 194.800 C 141.897 194.800,144.426 196.641,144.131 196.935 C 143.986 197.081,144.177 197.200,144.557 197.200 C 144.937 197.200,145.136 197.380,145.000 197.600 C 144.864 197.820,145.097 198.000,145.518 198.000 C 145.939 198.000,146.760 198.575,147.342 199.277 C 147.948 200.009,148.403 200.308,148.406 199.977 C 148.410 199.623,148.835 199.863,149.507 200.600 C 150.109 201.260,150.871 201.858,151.201 201.930 C 151.530 202.001,151.860 202.226,151.933 202.430 C 152.007 202.633,152.322 202.800,152.633 202.800 C 152.945 202.800,153.200 202.980,153.200 203.200 C 153.200 203.420,153.470 203.600,153.800 203.600 C 154.130 203.600,154.400 203.780,154.400 204.000 C 154.400 204.220,154.760 204.400,155.200 204.400 C 155.640 204.400,156.000 204.580,156.000 204.800 C 156.000 205.020,156.360 205.200,156.800 205.200 C 157.240 205.200,157.600 205.352,157.600 205.537 C 157.600 205.722,158.320 206.089,159.200 206.353 C 160.080 206.616,160.800 207.016,160.800 207.240 C 160.800 207.464,160.960 207.549,161.155 207.428 C 161.350 207.307,161.732 207.477,162.004 207.804 C 162.276 208.132,162.921 208.400,163.438 208.400 C 164.378 208.400,164.379 208.405,164.489 214.300 L 164.600 220.200 165.800 220.055 C 166.460 219.976,174.425 219.833,183.500 219.738 L 200.000 219.567 200.000 186.983 L 200.000 154.400 198.900 154.387 C 190.998 154.295,182.351 153.877,181.400 153.541 C 172.618 150.441,169.803 142.206,174.846 134.365 C 176.281 132.133,184.194 121.349,184.800 120.800 C 184.921 120.690,185.994 119.250,187.184 117.600 C 188.374 115.950,190.282 113.340,191.424 111.800 C 192.567 110.260,194.250 107.920,195.164 106.600 C 196.079 105.280,197.541 103.175,198.414 101.922 L 200.000 99.644 200.000 89.889 C 200.000 84.523,199.898 80.031,199.773 79.906 C 198.608 78.742,194.003 82.267,193.214 84.927 C 188.373 101.246,166.020 95.652,170.350 79.206 C 171.143 76.195,173.843 70.260,174.962 69.066 C 175.203 68.809,176.084 67.748,176.921 66.707 C 181.194 61.391,189.527 57.118,196.909 56.458 L 199.800 56.200 199.903 28.100 L 200.005 -0.000 158.903 0.032 C 136.296 0.049,117.530 0.152,117.200 0.261 M133.478 204.613 C 132.860 205.156,132.514 205.600,132.708 205.600 C 132.902 205.600,133.483 205.150,134.000 204.600 C 135.195 203.328,134.931 203.334,133.478 204.613 M235.759 214.400 C 235.759 217.590,235.821 218.895,235.897 217.300 C 235.973 215.705,235.973 213.095,235.897 211.500 C 235.821 209.905,235.759 211.210,235.759 214.400 M164.566 243.167 C 164.475 243.258,164.400 246.363,164.400 250.067 C 164.400 256.226,164.340 256.800,163.696 256.800 C 163.309 256.800,162.768 257.160,162.493 257.600 C 162.218 258.040,161.725 258.400,161.397 258.400 C 161.068 258.400,160.800 258.591,160.800 258.824 C 160.800 259.057,160.640 259.149,160.445 259.028 C 160.250 258.907,159.870 259.075,159.600 259.400 C 159.330 259.725,158.969 259.904,158.797 259.798 C 158.625 259.692,158.381 259.874,158.254 260.202 C 158.128 260.531,157.767 260.800,157.453 260.800 C 157.138 260.800,156.250 261.430,155.480 262.200 C 154.710 262.970,153.888 263.600,153.654 263.600 C 153.420 263.600,153.035 263.960,152.800 264.400 C 152.565 264.840,152.078 265.200,151.719 265.200 C 151.360 265.200,151.172 265.305,151.300 265.434 C 151.567 265.700,150.378 267.215,150.029 267.054 C 149.731 266.917,147.999 268.725,148.062 269.107 C 148.089 269.268,147.770 269.585,147.355 269.811 C 146.940 270.037,146.556 270.439,146.502 270.706 C 146.448 270.972,145.865 271.704,145.207 272.333 C 144.549 272.962,144.128 273.595,144.272 273.738 C 144.416 273.882,144.264 274.000,143.934 274.000 C 143.605 274.000,143.084 274.495,142.776 275.100 C 142.469 275.705,141.808 276.630,141.309 277.155 C 140.809 277.680,140.400 278.455,140.400 278.878 C 140.400 279.301,140.245 279.551,140.055 279.434 C 139.865 279.316,139.101 280.431,138.357 281.910 C 137.614 283.390,136.689 284.949,136.303 285.375 C 135.916 285.802,135.600 286.460,135.600 286.838 C 135.600 287.597,133.974 290.923,133.500 291.133 C 133.335 291.207,133.200 291.702,133.200 292.233 C 133.200 292.765,133.020 293.200,132.800 293.200 C 132.580 293.200,132.400 293.639,132.400 294.176 C 132.400 294.713,132.220 295.264,132.000 295.400 C 131.780 295.536,131.600 296.277,131.600 297.047 C 131.600 297.819,131.431 298.343,131.224 298.215 C 131.018 298.087,130.855 298.302,130.864 298.691 C 130.885 299.690,129.874 304.159,129.572 304.400 C 128.855 304.972,129.423 306.005,130.567 306.208 C 131.245 306.329,147.100 306.376,165.800 306.314 L 199.800 306.200 199.902 274.888 C 199.984 250.047,199.901 243.539,199.502 243.395 C 198.865 243.165,164.790 242.942,164.566 243.167 M235.765 250.000 C 235.765 253.850,235.825 255.425,235.898 253.500 C 235.971 251.575,235.971 248.425,235.898 246.500 C 235.825 244.575,235.765 246.150,235.765 250.000 " stroke="none" fill="#e3e3fb" fill-rule="evenodd"></path></g></svg>